<svg xmlns="http://www.w3.org/2000/svg" id="Layer_2" data-name="Layer 2" viewBox="0 0 118.42 113.58"><defs><style>.cls-1{fill:#7f7f7f;stroke-width:0}</style></defs><g id="Layer_1-2" data-name="Layer 1"><path d="m58.25 30.82-16.99-9.81 16.99-9.81L38.85 0 20.66 10.5v21.01l18.19 10.5 19.4-11.2ZM38.85 2.77l14.59 8.42-14.91 8.61H23.06v-7.92l15.79-9.12ZM23.06 22.21h15.47l14.91 8.61-14.59 8.42-15.79-9.12V22.2ZM97.76 31.86l-1.2-2.08-16.39 9.46-15.8-9.11v-7.92h32.79v-2.4H64.37v-7.92l15.8-9.12 16.39 9.47 1.2-2.08L80.17 0l-18.2 10.5v21.01l18.2 10.51zM33.99 58.29v7.92l-7.9 4.56 1.2 2.08 9.1-5.25V46.59L18.2 36.09 0 46.58v20.31h2.4v-8.61h31.58Zm-15.8-19.44 15.79 9.12v7.92H2.4v-7.92zM75.3 47.97V66.2l-7.9 4.56 1.21 2.08 9.09-5.25V46.58l-18.19-10.5-18.2 10.5V66.9h2.41V47.97l14.59-8.42v17.54h2.4V39.55zM102.03 74.33V39.25l15.19 8.77 1.2-2.08-17.6-10.16-17.59 10.16 1.2 2.08 15.19-8.77v35.08l-15.19-8.77-1.2 2.08 17.59 10.16 17.6-10.16-1.2-2.08zM80.17 93.77h15.79v7.92l-15.79 9.11-15.8-9.11V83.45l15.8-9.12 16.39 9.47 1.2-2.08-17.59-10.16-18.2 10.5v21.01l18.2 10.51 18.19-10.51v-11.7H80.17zM38.25 73.99l16.39 9.46v16.85L20.66 80.68v22.39l17.59 10.16 1.2-2.08-16.39-9.46V84.84l33.99 19.62v-22.4l-17.6-10.15z" class="cls-1"/></g></svg>