<?xml version="1.0" encoding="UTF-8"?>
<svg id="Layer_2" data-name="Layer 2" xmlns="http://www.w3.org/2000/svg" viewBox="0 0 118.42 113.58">
  <defs>
    <style>.cls-1 {
  fill: #7f7f7f;
  stroke-width: 0;
}
</style>
  </defs>
  <g id="Layer_1-2" data-name="Layer 1">
    <g>
      <path class="cls-1" d="M58.25,30.82l-16.99-9.81,16.99-9.81L38.85,0l-18.19,10.5v21.01l18.19,10.5,19.4-11.2ZM38.85,2.77l14.59,8.42-14.91,8.61h-15.47v-7.92l15.79-9.12ZM23.06,22.21h15.47l14.91,8.61-14.59,8.42-15.79-9.12v-7.92Z"></path>
      <polygon class="cls-1" points="97.76 31.86 96.56 29.78 80.17 39.24 64.37 30.13 64.37 22.21 97.16 22.21 97.16 19.81 64.37 19.81 64.37 11.89 80.17 2.77 96.56 12.24 97.76 10.16 80.17 0 61.97 10.5 61.97 31.51 80.17 42.02 97.76 31.86"></polygon>
      <path class="cls-1" d="M33.99,58.29v7.92l-7.9,4.56,1.2,2.08,9.1-5.25v-21.01l-18.19-10.5L0,46.58v20.31h2.4v-8.61h31.58ZM18.19,38.85l15.79,9.12v7.92H2.4v-7.92l15.79-9.12Z"></path>
      <polygon class="cls-1" points="75.3 47.97 75.3 66.2 67.4 70.76 68.61 72.84 77.7 67.59 77.7 46.58 59.51 36.08 41.31 46.58 41.31 66.9 43.72 66.9 43.72 47.97 58.31 39.55 58.31 57.09 60.71 57.09 60.71 39.55 75.3 47.97"></polygon>
      <polygon class="cls-1" points="102.03 74.33 102.03 39.25 117.22 48.02 118.42 45.94 100.82 35.78 83.23 45.94 84.43 48.02 99.62 39.25 99.62 74.33 84.43 65.56 83.23 67.64 100.82 77.8 118.42 67.64 117.22 65.56 102.03 74.33"></polygon>
      <polygon class="cls-1" points="80.17 93.77 95.96 93.77 95.96 101.69 80.17 110.8 64.37 101.69 64.37 83.45 80.17 74.33 96.56 83.8 97.76 81.72 80.17 71.56 61.97 82.06 61.97 103.07 80.17 113.58 98.36 103.07 98.36 91.37 80.17 91.37 80.17 93.77"></polygon>
      <polygon class="cls-1" points="38.25 73.99 54.64 83.45 54.64 100.3 20.66 80.68 20.66 103.07 38.25 113.23 39.45 111.15 23.06 101.69 23.06 84.84 57.05 104.46 57.05 82.06 39.45 71.91 38.25 73.99"></polygon>
    </g>
  </g>
</svg>