<svg xmlns="http://www.w3.org/2000/svg"><defs><font id="Phosphor-Bold" horiz-adv-x="1024"><font-face ascent="960" descent="-64" units-per-em="1024"/><glyph horiz-adv-x="512"/><glyph d="M976 448c0-26.51-21.49-48-48-48h-98.32L682.92 106.52C674.862 90.672 658.677 80.002 640 80h-2.4c-19.392 1.012-35.655 13.388-42.328 30.553l-.112.327L380 675.4 267.68 428c-7.77-16.661-24.378-28-43.635-28H95.999c-26.51 0-48 21.49-48 48s21.49 48 48 48h97.08l147.24 324c7.752 16.708 24.384 28.087 43.674 28.087 20.357 0 37.755-12.673 44.733-30.56l.112-.327 217.12-569.84 111.12 222.24c8.08 15.784 24.233 26.4 42.865 26.4h128.055c26.51 0 48-21.49 48-48Z" data-tags="pulse-bold" glyph-name="pulse-bold, activity-bold" unicode=""/><glyph d="M949.48 458.92 656 605.68V768c0 79.529-64.471 144-144 144s-144-64.471-144-144V605.68L74.52 458.92C58.672 450.862 48.002 434.677 48 416V287.991c0-26.51 21.49-48 48-48 3.326 0 6.574.338 9.71.983l-.31-.053 262.6 52.52v-49.44l-49.96-50.04c-8.675-8.684-14.04-20.677-14.04-33.922v-.04.002-128c.001-26.509 21.491-47.998 48-47.998a47.9 47.9 0 0 1 18.16 3.554l-.32-.116L512 44.321l142.16-56.88c5.261-2.176 11.37-3.44 17.775-3.44h.069H672c26.51 0 48 21.49 48 48v128.038c0 13.245-5.365 25.238-14.04 33.923L656 244.002v49.44l262.6-52.52c2.826-.591 6.074-.929 9.4-.929 26.51 0 48 21.49 48 48v128.01c-.002 18.677-10.672 34.862-26.248 42.794l-.272.126ZM880 346.56l-262.6 52.52c-2.826.591-6.074.929-9.4.929-26.51 0-48-21.49-48-48V223.961c0-13.245 5.365-25.238 14.04-33.923l49.96-50.04v-37.24l-94.16 37.68c-5.282 2.175-11.413 3.438-17.84 3.438s-12.558-1.263-18.16-3.554l.32.116-94.16-37.56v37.12l49.96 49.92c8.675 8.684 14.04 20.677 14.04 33.922v.166-.009 128.009c0 26.51-21.49 48-48 48-3.326 0-6.574-.338-9.71-.983l.31.053-262.6-52.52v39.76l293.48 146.76c15.848 8.058 26.518 24.243 26.52 42.92v192c0 26.51 21.49 48 48 48s48-21.49 48-48v-192c.002-18.677 10.672-34.862 26.248-42.794l.272-.126L880 386.316Z" data-tags="airplane-bold" glyph-name="airplane-bold" unicode=""/><glyph d="M548.44 351.24c-8.855 10.285-21.892 16.757-36.44 16.757s-27.585-6.472-36.387-16.694l-.053-.063-192-224c-7.183-8.341-11.557-19.28-11.557-31.24 0-26.509 21.489-47.999 47.997-48h384c26.509.001 47.997 21.491 47.997 48a47.8 47.8 0 0 1-11.61 31.303l.053-.063ZM424.44 144 512 246.24 599.64 144ZM944 704V256c0-61.856-50.144-112-112-112h-16c-26.51 0-48 21.49-48 48s21.49 48 48 48h16c8.837 0 16 7.163 16 16v448c0 8.837-7.163 16-16 16H192c-8.837 0-16-7.163-16-16V256c0-8.837 7.163-16 16-16h16c26.51 0 48-21.49 48-48s-21.49-48-48-48h-16c-61.856 0-112 50.144-112 112v448c0 61.856 50.144 112 112 112h640c61.856 0 112-50.144 112-112" data-tags="airplay-bold" glyph-name="airplay-bold" unicode=""/><glyph d="M512 816c-220.914 0-400-179.086-400-400S291.086 16 512 16s400 179.086 400 400c-.25 220.813-179.187 399.75-399.976 400Zm0-704c-167.895 0-304 136.105-304 304s136.105 304 304 304 304-136.105 304-304c-.182-167.821-136.179-303.818-303.983-304ZM129.96 670.04c-8.701-8.701-20.722-14.083-34-14.083-26.556 0-48.083 21.528-48.083 48.083 0 13.278 5.382 25.299 14.083 34l128 128c8.701 8.701 20.722 14.083 34 14.083 26.556 0 48.083-21.528 48.083-48.083 0-13.278-5.382-25.299-14.083-34Zm832 0c-8.692-8.721-20.716-14.118-34-14.118s-25.308 5.396-33.999 14.116L765.96 798.039c-8.701 8.701-14.083 20.722-14.083 34 0 26.556 21.528 48.083 48.083 48.083 13.278 0 25.299-5.382 34-14.083l128-128c8.721-8.692 14.118-20.716 14.118-34s-5.396-25.308-14.116-33.999l-.001-.001ZM704 464c26.51 0 48-21.49 48-48s-21.49-48-48-48H512c-26.51 0-48 21.49-48 48v192c0 26.51 21.49 48 48 48s48-21.49 48-48V464Z" data-tags="alarm-bold" glyph-name="alarm-bold" unicode=""/><glyph d="M720 368c0-35.346-28.654-64-64-64s-64 28.654-64 64 28.654 64 64 64 64-28.654 64-64m-352 64c-35.346 0-64-28.654-64-64s28.654-64 64-64 64 28.654 64 64-28.654 64-64 64m608-112v-96c0-44.183-35.817-80-80-80H128c-44.183 0-80 35.817-80 80v91.949c0 128.321 51.491 244.616 134.938 329.35l-.058-.059-88.84 88.8c-8.701 8.701-14.083 20.722-14.083 34 0 26.556 21.528 48.083 48.083 48.083 13.278 0 25.299-5.382 34-14.083l95.16-95.36c71.103 48.193 158.735 77.041 253.089 77.32H512l1.263.002c94.718 0 182.759-28.59 255.963-77.612l-1.666 1.05 94.48 94.52c8.701 8.701 20.722 14.083 34 14.083 26.556 0 48.083-21.528 48.083-48.083 0-13.278-5.382-25.299-14.083-34l-88-88c82.789-83.275 133.961-198.059 133.961-324.795l-.002-1.229Zm-96 0v.002c0 203.241-164.759 368-368 368l-1.392-.003h.072c-202.2-.72-366.68-168-366.68-372.52v-75.48h736Z" data-tags="android-logo-bold" glyph-name="android-logo-bold" unicode=""/><glyph d="M817.64 753.48C739.464 831.651 631.468 880 512.18 880c-238.587 0-432-193.413-432-432s193.413-432 432-432c119.289 0 227.285 48.349 305.461 126.52C896.427 220.419 945.218 328.512 945.218 448s-48.791 227.58-127.537 305.44l-.04.04Zm-68-68a337 337 0 0 0 34.734-40.52l.666-.96L676 515.64l-93.2 260.84c65.784-14.351 122.577-46.398 166.912-90.872l.008-.008Zm-475.4 0c53.054 53.315 123.988 88.796 203.047 96.687l1.393.113 56.64-158.6-272.48 49.88c3.72 4.08 7.52 8.08 11.48 12.04ZM192 345.2c-10.164 30.726-16.027 66.095-16.027 102.834 0 50.122 10.913 97.696 30.491 140.475l-.865-2.108 165.76-30.4Zm82.2-134.8a337.5 337.5 0 0 0-34.563 40.617l-.677.983L348 380.36l93.2-260.84c-65.768 14.36-122.546 46.406-166.871 90.871l-.009.009Zm145.44 254.44 60.72 71.4 92.24-16.84 31.52-88.24-60.68-71.4-92.24 16.84ZM749.6 210.4c-53.063-53.302-123.992-88.778-203.044-96.687l-1.396-.113L488.6 272l272.56-49.76c-3.72-3.88-7.52-7.88-11.44-11.84ZM652.64 340 832 550.8c10.162-30.714 16.024-66.069 16.024-102.794 0-50.14-10.927-97.728-30.529-140.512l.865 2.106Z" data-tags="aperture-bold" glyph-name="aperture-bold" unicode=""/><glyph d="M896 784H128c-44.183 0-80-35.817-80-80v-96.016c0-38.519 27.223-70.68 63.479-78.292l.521-.092V192c0-44.183 35.817-80 80-80h640c44.183 0 80 35.817 80 80v337.6c36.777 7.704 64 39.865 64 78.384v.017V608v96c0 44.183-35.817 80-80 80m-752-96h736v-64H144Zm64-480v320h608V208Zm448 208c0-26.51-21.49-48-48-48H416c-26.51 0-48 21.49-48 48s21.49 48 48 48h192c26.51 0 48-21.49 48-48" data-tags="archive-bold" glyph-name="archive-bold" unicode=""/><glyph d="m906.92 693.48-64 128c-8.058 15.848-24.243 26.518-42.92 26.52H224c-18.677-.002-34.862-10.672-42.794-26.248l-.126-.272-64-128c-3.201-6.257-5.078-13.649-5.08-21.479V128c0-44.183 35.817-80 80-80h640c44.183 0 80 35.817 80 80v544a47.8 47.8 0 0 1-5.206 21.752ZM770.32 752l24-48H229.68l24 48ZM208 144v464h608V144Zm465.96 257.96c8.721-8.692 14.118-20.716 14.118-34s-5.396-25.308-14.116-33.999L545.961 205.96c-8.692-8.721-20.716-14.118-34-14.118s-25.308 5.396-33.999 14.116L349.961 333.959c-8.701 8.701-14.083 20.722-14.083 34 0 26.556 21.528 48.083 48.083 48.083 13.278 0 25.299-5.382 34-14.083l46.04-45.96v156c0 26.51 21.49 48 48 48s48-21.49 48-48v-156l46.04 46.08c8.682 8.662 20.666 14.018 33.9 14.018 13.294 0 25.326-5.404 34.018-14.136l.002-.002Z" data-tags="box-arrow-down-bold" glyph-name="box-arrow-down-bold, archive-box-bold" unicode=""/><glyph d="M832 848H192c-44.183 0-80-35.817-80-80V128c0-44.183 35.817-80 80-80h640c44.183 0 80 35.817 80 80v640c0 44.183-35.817 80-80 80m-16-96V384h-98.975c-22.023 0-41.952-8.961-56.341-23.436l-.004-.004L588 288H436l-72.68 72.56C348.927 375.039 328.998 384 306.975 384H208v368ZM208 144v144h92l72.56-72.56c14.393-14.479 34.323-23.441 56.345-23.441l.353.001h165.717c22.023 0 41.952 8.961 56.341 23.436l.004.004L724 288h92V144Zm142.04 350.04c-8.701 8.701-14.083 20.722-14.083 34 0 26.556 21.528 48.083 48.083 48.083 13.278 0 25.299-5.382 34-14.083L464 516v140c0 26.51 21.49 48 48 48s48-21.49 48-48V516l46.04 46.08c8.701 8.701 20.722 14.083 34 14.083 26.556 0 48.083-21.528 48.083-48.083 0-13.278-5.382-25.299-14.083-34l-128-128c-8.692-8.721-20.716-14.118-34-14.118s-25.308 5.396-33.999 14.116l-.001.001Z" data-tags="tray-arrow-down-bold" glyph-name="tray-arrow-down-bold, archive-tray-bold" unicode=""/><glyph d="M880 645.88V672c-.114 97.156-78.844 175.886-175.989 176H320c-97.156-.114-175.886-78.844-176-175.989V645.88C59.585 618.11-.282 539.986-.282 447.88S59.585 277.651 142.53 250.3l1.47-.42V160c0-44.183 35.817-80 80-80h576c44.183 0 80 35.817 80 80v89.96c84.415 27.77 144.282 105.894 144.282 198S964.415 618.189 881.47 645.54l-1.47.42ZM320 752h384c44.183 0 80-35.817 80-80v-18.48c-94.809-15.336-167.508-92.884-175.272-188.781l-.048-.739H415.32c-7.812 96.636-80.511 174.184-174.122 189.36l-1.198.16V672c0 44.183 35.817 80 80 80m507.24-415.44c-24.38-2.501-43.238-22.928-43.24-47.76V176H240v112.8c-.002 24.832-18.86 45.259-43.035 47.743l-.205.017C139.931 342.461 96 390.097 96 447.995c0 61.856 50.144 112 112 112 61.854 0 111.997-50.141 112-111.994v-144c0-26.51 21.49-48 48-48s48 21.49 48 48v64h192v-64c0-26.51 21.49-48 48-48s48 21.49 48 48v144c.003 61.854 50.146 111.995 112 111.995 61.856 0 112-50.144 112-112 0-57.897-43.931-105.534-100.278-111.394Z" data-tags="armchair-bold" glyph-name="armchair-bold" unicode=""/><glyph d="M944 224c0-26.51-21.49-48-48-48s-48 21.49-48 48v.024c0 185.568-150.432 336-336 336-92.79 0-176.795-37.613-237.6-98.424L212.44 400H352c26.51 0 48-21.49 48-48s-21.49-48-48-48H96c-26.51 0-48 21.49-48 48v256c0 26.51 21.49 48 48 48s48-21.49 48-48V467.36l62.64 62.2C284.806 607.671 392.761 655.98 512 655.98c238.58 0 431.989-193.402 432-431.979Z" data-tags="arrow-arc-left-bold" glyph-name="arrow-arc-left-bold" unicode=""/><glyph d="M976 608V352c0-26.51-21.49-48-48-48H672c-26.51 0-48 21.49-48 48s21.49 48 48 48h139.6l-61.92 61.48c-60.813 60.859-144.85 98.504-237.68 98.504-185.562 0-335.991-150.423-336-335.983V224c0-26.51-21.49-48-48-48s-48 21.49-48 48v.02c0 238.587 193.413 432 432 432 119.299 0 227.303-48.357 305.48-126.54L880 467.36V608c0 26.51 21.49 48 48 48s48-21.49 48-48" data-tags="arrow-arc-right-bold" glyph-name="arrow-arc-right-bold" unicode=""/><glyph d="M944 736c-.273-238.477-193.523-431.727-431.974-432H244l110.08-110.04c8.701-8.701 14.083-20.722 14.083-34 0-26.556-21.528-48.083-48.083-48.083-13.278 0-25.299 5.382-34 14.083l-192 192c-8.721 8.692-14.118 20.716-14.118 34s5.396 25.308 14.116 33.999L286.079 577.96c8.701 8.701 20.722 14.083 34 14.083 26.556 0 48.083-21.528 48.083-48.083 0-13.278-5.382-25.299-14.083-34L243.999 400h268c185.485.205 335.795 150.515 336 335.98v.02c0 26.51 21.49 48 48 48s48-21.49 48-48Z" data-tags="arrow-bend-down-left-bold" glyph-name="arrow-bend-down-left-bold" unicode=""/><glyph d="m929.96 318.04-192-192c-8.701-8.701-20.722-14.083-34-14.083-26.556 0-48.083 21.528-48.083 48.083 0 13.278 5.382 25.299 14.083 34L780 304H512c-238.477.273-431.727 193.523-432 431.974V736c0 26.51 21.49 48 48 48s48-21.49 48-48c.205-185.485 150.515-335.795 335.98-336H780L669.92 510.04c-8.701 8.701-14.083 20.722-14.083 34 0 26.556 21.528 48.083 48.083 48.083 13.278 0 25.299-5.382 34-14.083l192-192c8.733-8.694 14.138-20.726 14.138-34.02 0-13.274-5.388-25.29-14.097-33.979Z" data-tags="arrow-bend-down-right-bold" glyph-name="arrow-bend-down-right-bold" unicode=""/><glyph d="M848 832c0-26.51-21.49-48-48-48-185.485-.205-335.795-150.515-336-335.98V180l110.04 110.08c8.701 8.701 20.722 14.083 34 14.083 26.556 0 48.083-21.528 48.083-48.083 0-13.278-5.382-25.299-14.083-34l-192-192c-8.692-8.721-20.716-14.118-34-14.118s-25.308 5.396-33.999 14.116L190.04 222.079c-8.701 8.701-14.083 20.722-14.083 34 0 26.556 21.528 48.083 48.083 48.083 13.278 0 25.299-5.382 34-14.083L368 179.999v268c.273 238.477 193.523 431.727 431.974 432H800c26.51 0 48-21.49 48-48Z" data-tags="arrow-bend-left-down-bold" glyph-name="arrow-bend-left-down-bold" unicode=""/><glyph d="M848 64c0-26.51-21.49-48-48-48-238.477.273-431.727 193.523-432 431.974V716L257.96 606.04c-8.701-8.701-20.722-14.083-34-14.083-26.556 0-48.083 21.528-48.083 48.083 0 13.278 5.382 25.299 14.083 34l192 192c8.692 8.721 20.716 14.118 34 14.118s25.308-5.396 33.999-14.116L641.96 674.041c8.701-8.701 14.083-20.722 14.083-34 0-26.556-21.528-48.083-48.083-48.083-13.278 0-25.299 5.382-34 14.083L464 716.001v-268c.205-185.485 150.515-335.795 335.98-336h.02c26.51 0 48-21.49 48-48Z" data-tags="arrow-bend-left-up-bold" glyph-name="arrow-bend-left-up-bold" unicode=""/><glyph d="m833.96 222.04-192-192c-8.692-8.721-20.716-14.118-34-14.118s-25.308 5.396-33.999 14.116L381.96 222.039c-8.701 8.701-14.083 20.722-14.083 34 0 26.556 21.528 48.083 48.083 48.083 13.278 0 25.299-5.382 34-14.083L560 179.999v268c-.205 185.485-150.515 335.795-335.98 336H224c-26.51 0-48 21.49-48 48s21.49 48 48 48c238.477-.273 431.727-193.523 432-431.974V179.999l110.04 110.08c8.701 8.701 20.722 14.083 34 14.083 26.556 0 48.083-21.528 48.083-48.083 0-13.278-5.382-25.299-14.083-34Z" data-tags="arrow-bend-right-down-bold" glyph-name="arrow-bend-right-down-bold" unicode=""/><glyph d="M833.96 606.04c-8.692-8.721-20.716-14.118-34-14.118s-25.308 5.396-33.999 14.116L656 715.999v-268c-.273-238.477-193.523-431.727-431.974-432H224c-26.51 0-48 21.49-48 48s21.49 48 48 48c185.485.205 335.795 150.515 336 335.98v268.02l-110.04-109.96c-8.701-8.701-20.722-14.083-34-14.083-26.556 0-48.083 21.528-48.083 48.083 0 13.278 5.382 25.299 14.083 34l192 192c8.692 8.721 20.716 14.118 34 14.118s25.308-5.396 33.999-14.116L833.96 674.04c8.721-8.692 14.118-20.716 14.118-34s-5.396-25.308-14.116-33.999l-.001-.001Z" data-tags="arrow-bend-right-up-bold" glyph-name="arrow-bend-right-up-bold" unicode=""/><glyph d="M944 160c0-26.51-21.49-48-48-48s-48 21.49-48 48c-.205 185.485-150.515 335.795-335.98 336H244l110.08-110.04c8.701-8.701 14.083-20.722 14.083-34 0-26.556-21.528-48.083-48.083-48.083-13.278 0-25.299 5.382-34 14.083l-192 192c-8.721 8.692-14.118 20.716-14.118 34s5.396 25.308 14.116 33.999L286.079 769.96c8.701 8.701 20.722 14.083 34 14.083 26.556 0 48.083-21.528 48.083-48.083 0-13.278-5.382-25.299-14.083-34L243.999 592h268c238.477-.273 431.727-193.523 432-431.974Z" data-tags="arrow-bend-up-left-bold" glyph-name="arrow-bend-up-left-bold" unicode=""/><glyph d="m929.96 510.04-192-192c-8.701-8.701-20.722-14.083-34-14.083-26.556 0-48.083 21.528-48.083 48.083 0 13.278 5.382 25.299 14.083 34L780 496H512c-185.485-.205-335.795-150.515-336-335.98V160c0-26.51-21.49-48-48-48s-48 21.49-48 48c.273 238.477 193.523 431.727 431.974 432H780L670.04 702.08c-8.701 8.701-14.083 20.722-14.083 34 0 26.556 21.528 48.083 48.083 48.083 13.278 0 25.299-5.382 34-14.083l192-192c8.71-8.69 14.098-20.706 14.098-33.98 0-13.314-5.421-25.362-14.175-34.057Z" data-tags="arrow-bend-up-right-bold" glyph-name="arrow-bend-up-right-bold" unicode=""/><glyph d="M512 880C273.413 880 80 686.587 80 448S273.413 16 512 16s432 193.413 432 432c-.273 238.477-193.523 431.727-431.974 432Zm0-768c-185.568 0-336 150.432-336 336s150.432 336 336 336 336-150.432 336-336c-.205-185.485-150.515-335.795-335.98-336Zm161.96 337.96c8.721-8.692 14.118-20.716 14.118-34s-5.396-25.308-14.116-33.999L545.961 253.96c-8.692-8.721-20.716-14.118-34-14.118s-25.308 5.396-33.999 14.116L349.961 381.959c-8.701 8.701-14.083 20.722-14.083 34 0 26.556 21.528 48.083 48.083 48.083 13.278 0 25.299-5.382 34-14.083l46.04-45.96v204c0 26.51 21.49 48 48 48s48-21.49 48-48v-204l46.04 46.08c8.682 8.662 20.666 14.018 33.9 14.018 13.294 0 25.326-5.404 34.018-14.136l.002-.002Z" data-tags="arrow-circle-down-bold" glyph-name="arrow-circle-down-bold" unicode=""/><glyph d="M512 880C273.413 880 80 686.587 80 448S273.413 16 512 16s432 193.413 432 432c-.273 238.477-193.523 431.727-431.974 432Zm0-768c-185.568 0-336 150.432-336 336s150.432 336 336 336 336-150.432 336-336c-.205-185.485-150.515-335.795-335.98-336Zm161.96 497.96c8.721-8.692 14.118-20.716 14.118-34s-5.396-25.308-14.116-33.999L500.001 368h76c26.51 0 48-21.49 48-48s-21.49-48-48-48h-192c-26.51 0-48 21.49-48 48v192c0 26.51 21.49 48 48 48s48-21.49 48-48v-76l174.04 174.08c8.682 8.662 20.666 14.018 33.9 14.018 13.294 0 25.326-5.404 34.018-14.136Z" data-tags="arrow-circle-down-left-bold" glyph-name="arrow-circle-down-left-bold" unicode=""/><glyph d="M512 880C273.413 880 80 686.587 80 448S273.413 16 512 16s432 193.413 432 432c-.273 238.477-193.523 431.727-431.974 432Zm0-768c-185.568 0-336 150.432-336 336s150.432 336 336 336 336-150.432 336-336c-.205-185.485-150.515-335.795-335.98-336Zm176 400V320c0-26.51-21.49-48-48-48H448c-26.51 0-48 21.49-48 48s21.49 48 48 48h76L350.04 542.04c-8.701 8.701-14.083 20.722-14.083 34 0 26.556 21.528 48.083 48.083 48.083 13.278 0 25.299-5.382 34-14.083L592 436v76c0 26.51 21.49 48 48 48s48-21.49 48-48" data-tags="arrow-circle-down-right-bold" glyph-name="arrow-circle-down-right-bold" unicode=""/><glyph d="M512 880C273.413 880 80 686.587 80 448S273.413 16 512 16s432 193.413 432 432c-.273 238.477-193.523 431.727-431.974 432Zm0-768c-185.568 0-336 150.432-336 336s150.432 336 336 336 336-150.432 336-336c-.205-185.485-150.515-335.795-335.98-336Zm193.96 369.96c8.721-8.692 14.118-20.716 14.118-34s-5.396-25.308-14.116-33.999L577.961 285.96c-8.701-8.701-20.722-14.083-34-14.083-26.556 0-48.083 21.528-48.083 48.083 0 13.278 5.382 25.299 14.083 34l46.04 46.04h-204c-26.51 0-48 21.49-48 48s21.49 48 48 48h204l-46.08 46.04c-8.701 8.701-14.083 20.722-14.083 34 0 26.556 21.528 48.083 48.083 48.083 13.278 0 25.299-5.382 34-14.083Z" data-tags="arrow-circle-right-bold" glyph-name="arrow-circle-right-bold" unicode=""/><glyph d="M512 880C273.413 880 80 686.587 80 448S273.413 16 512 16s432 193.413 432 432c-.273 238.477-193.523 431.727-431.974 432Zm0-768c-185.568 0-336 150.432-336 336s150.432 336 336 336 336-150.432 336-336c-.205-185.485-150.515-335.795-335.98-336Zm161.96 401.96c8.701-8.701 14.083-20.722 14.083-34 0-26.556-21.528-48.083-48.083-48.083-13.278 0-25.299 5.382-34 14.083L560 492V288c0-26.51-21.49-48-48-48s-48 21.49-48 48v204l-46.04-46.08c-8.701-8.701-20.722-14.083-34-14.083-26.556 0-48.083 21.528-48.083 48.083 0 13.278 5.382 25.299 14.083 34l128 128c8.692 8.721 20.716 14.118 34 14.118s25.308-5.396 33.999-14.116l.001-.001Z" data-tags="arrow-circle-up-bold" glyph-name="arrow-circle-up-bold" unicode=""/><glyph d="M512 880C273.413 880 80 686.587 80 448S273.413 16 512 16s432 193.413 432 432c-.273 238.477-193.523 431.727-431.974 432Zm0-768c-185.568 0-336 150.432-336 336s150.432 336 336 336 336-150.432 336-336c-.205-185.485-150.515-335.795-335.98-336Zm161.96 241.96c8.701-8.701 14.083-20.722 14.083-34 0-26.556-21.528-48.083-48.083-48.083-13.278 0-25.299 5.382-34 14.083L432 460v-76c0-26.51-21.49-48-48-48s-48 21.49-48 48v192c0 26.51 21.49 48 48 48h192c26.51 0 48-21.49 48-48s-21.49-48-48-48h-76Z" data-tags="arrow-circle-up-left-bold" glyph-name="arrow-circle-up-left-bold" unicode=""/><glyph d="M512 880C273.413 880 80 686.587 80 448S273.413 16 512 16s432 193.413 432 432c-.273 238.477-193.523 431.727-431.974 432Zm0-768c-185.568 0-336 150.432-336 336s150.432 336 336 336 336-150.432 336-336c-.205-185.485-150.515-335.795-335.98-336Zm176 464V384c0-26.51-21.49-48-48-48s-48 21.49-48 48v76L417.96 285.92c-8.701-8.701-20.722-14.083-34-14.083-26.556 0-48.083 21.528-48.083 48.083 0 13.278 5.382 25.299 14.083 34L524 528h-76c-26.51 0-48 21.49-48 48s21.49 48 48 48h192c26.51 0 48-21.49 48-48" data-tags="arrow-circle-up-right-bold" glyph-name="arrow-circle-up-right-bold" unicode=""/><glyph d="M976 736V544c0-26.51-21.49-48-48-48H736c-26.51 0-48 21.49-48 48s21.49 48 48 48h68.4l-76 69.52c-.52.48-1.04.96-1.52 1.48-55.007 54.974-130.98 88.974-214.895 88.974-167.895 0-304-136.105-304-304 0-166.493 133.843-301.726 299.803-303.972L508 144h4l.728-.001c80.602 0 153.831 31.564 208.003 83.005l-.131-.124a47.84 47.84 0 0 0 32.98 13.118c26.519 0 48.018-21.498 48.018-48.018 0-13.737-5.769-26.127-15.015-34.879l-.022-.021C715.412 89.539 619.011 47.999 512.908 47.999l-.955.001h-5.431C288.046 51.177 112.16 229.028 112.16 447.96c0 220.914 179.086 400 400 400 109.98 0 209.594-44.386 281.904-116.222l-.022.021 85.96-78.64v82.88c0 26.51 21.49 48 48 48s48-21.49 48-48Z" data-tags="arrow-clockwise-bold" glyph-name="arrow-clockwise-bold" unicode=""/><glyph d="M912 448v-.036c0-219.03-176.044-396.942-394.356-399.961L517.36 48H512l-.838-.001c-106.114 0-202.517 41.573-273.812 109.321l.17-.16c-9.273 8.771-15.044 21.162-15.044 34.9 0 26.512 21.492 48.004 48.004 48.004 12.774 0 24.382-4.989 32.982-13.125l-.022.021c54.32-51.368 127.818-82.949 208.692-82.949 167.895 0 304 136.105 304 304s-136.105 304-304 304c-83.953 0-159.958-34.031-214.972-89.051-.52-.52-1-1-1.56-1.48L219.56 592H288c26.51 0 48-21.49 48-48s-21.49-48-48-48H96c-26.51 0-48 21.49-48 48v192c0 26.51 21.49 48 48 48s48-21.49 48-48v-82.88l85.92 78.64C302.229 803.692 401.922 848.157 512 848.157c220.914 0 400-179.086 400-400v-.165Z" data-tags="arrow-counter-clockwise-bold" glyph-name="arrow-counter-clockwise-bold" unicode=""/><glyph d="M353.96 385.96c8.701-8.701 14.083-20.722 14.083-34 0-26.556-21.528-48.083-48.083-48.083-13.278 0-25.299 5.382-34 14.083l-192 192c-8.721 8.692-14.118 20.716-14.118 34s5.396 25.308 14.116 33.999L285.959 769.96c8.701 8.701 20.722 14.083 34 14.083 26.556 0 48.083-21.528 48.083-48.083 0-13.278-5.382-25.299-14.083-34L195.999 544ZM512 592h-44l110.08 110.08c8.701 8.701 14.083 20.722 14.083 34 0 26.556-21.528 48.083-48.083 48.083-13.278 0-25.299-5.382-34-14.083l-192-192c-8.721-8.692-14.118-20.716-14.118-34s5.396-25.308 14.116-33.999L510.079 318.08c8.701-8.701 20.722-14.083 34-14.083 26.556 0 48.083 21.528 48.083 48.083 0 13.278-5.382 25.299-14.083 34L467.999 496h44c185.485-.205 335.795-150.515 336-335.98V160c0-26.51 21.49-48 48-48s48 21.49 48 48c-.273 238.477-193.523 431.727-431.974 432Z" data-tags="arrow-bend-double-up-left-bold" glyph-name="arrow-bend-double-up-left-bold" unicode=""/><glyph d="m929.96 510.04-192-192c-8.701-8.701-20.722-14.083-34-14.083-26.556 0-48.083 21.528-48.083 48.083 0 13.278 5.382 25.299 14.083 34L828 544 670.04 702.08c-8.701 8.701-14.083 20.722-14.083 34 0 26.556 21.528 48.083 48.083 48.083 13.278 0 25.299-5.382 34-14.083l192-192c8.71-8.69 14.098-20.706 14.098-33.98 0-13.314-5.421-25.362-14.175-34.057Zm-224 68-192 192c-8.701 8.701-20.722 14.083-34 14.083-26.556 0-48.083-21.528-48.083-48.083 0-13.278 5.382-25.299 14.083-34L556 592h-44c-238.477-.273-431.727-193.523-432-431.974V160c0-26.51 21.49-48 48-48s48 21.49 48 48c.205 185.485 150.515 335.795 335.98 336H556L445.92 385.96c-8.701-8.701-14.083-20.722-14.083-34 0-26.556 21.528-48.083 48.083-48.083 13.278 0 25.299 5.382 34 14.083l192 192c8.733 8.694 14.138 20.726 14.138 34.02 0 13.274-5.388 25.29-14.097 33.979l-.001.001Z" data-tags="arrow-bend-double-up-right-bold" glyph-name="arrow-bend-double-up-right-bold" unicode=""/><glyph d="m833.96 350.04-288-288c-8.692-8.721-20.716-14.118-34-14.118s-25.308 5.396-33.999 14.116L189.96 350.039c-8.701 8.701-14.083 20.722-14.083 34 0 26.556 21.528 48.083 48.083 48.083 13.278 0 25.299-5.382 34-14.083L464 211.999v588c0 26.51 21.49 48 48 48s48-21.49 48-48v-588l206.04 206.08c8.701 8.701 20.722 14.083 34 14.083 26.556 0 48.083-21.528 48.083-48.083 0-13.278-5.382-25.299-14.083-34Z" data-tags="arrow-down-bold" glyph-name="arrow-down-bold" unicode=""/><glyph d="M801.96 670.08 372 240h300c26.51 0 48-21.49 48-48s-21.49-48-48-48H256c-26.51 0-48 21.49-48 48v416c0 26.51 21.49 48 48 48s48-21.49 48-48V308l430.04 429.96c8.701 8.701 20.722 14.083 34 14.083 26.556 0 48.083-21.528 48.083-48.083 0-13.278-5.382-25.299-14.083-34Z" data-tags="arrow-down-left-bold" glyph-name="arrow-down-left-bold" unicode=""/><glyph d="M816 608V192c0-26.51-21.49-48-48-48H352c-26.51 0-48 21.49-48 48s21.49 48 48 48h300L222.04 670.08c-8.701 8.701-14.083 20.722-14.083 34 0 26.556 21.528 48.083 48.083 48.083 13.278 0 25.299-5.382 34-14.083L720 308v300c0 26.51 21.49 48 48 48s48-21.49 48-48" data-tags="arrow-down-right-bold" glyph-name="arrow-down-right-bold" unicode=""/><glyph d="M816 832V256c0-26.51-21.49-48-48-48H308L418.08 97.96c8.701-8.701 14.083-20.722 14.083-34 0-26.556-21.528-48.083-48.083-48.083-13.278 0-25.299 5.382-34 14.083l-192 192c-8.721 8.692-14.118 20.716-14.118 34s5.396 25.308 14.116 33.999L350.079 481.96c8.701 8.701 20.722 14.083 34 14.083 26.556 0 48.083-21.528 48.083-48.083 0-13.278-5.382-25.299-14.083-34L307.999 304h412v528c0 26.51 21.49 48 48 48s48-21.49 48-48Z" data-tags="arrow-elbow-down-left-bold" glyph-name="arrow-elbow-down-left-bold" unicode=""/><glyph d="m897.96 222.04-192-192c-8.701-8.701-20.722-14.083-34-14.083-26.556 0-48.083 21.528-48.083 48.083 0 13.278 5.382 25.299 14.083 34L748 208H288c-26.51 0-48 21.49-48 48v576c0 26.51 21.49 48 48 48s48-21.49 48-48V304h412L637.92 414.04c-8.701 8.701-14.083 20.722-14.083 34 0 26.556 21.528 48.083 48.083 48.083 13.278 0 25.299-5.382 34-14.083l192-192c8.733-8.694 14.138-20.726 14.138-34.02 0-13.274-5.388-25.29-14.097-33.979Z" data-tags="arrow-elbow-down-right-bold" glyph-name="arrow-elbow-down-right-bold" unicode=""/><glyph d="m961.96 542.04-384-384c-8.692-8.721-20.716-14.118-34-14.118s-25.308 5.396-33.999 14.116L144 523.999v-172c0-26.51-21.49-48-48-48s-48 21.49-48 48v288c0 26.51 21.49 48 48 48h288c26.51 0 48-21.49 48-48s-21.49-48-48-48H212l332-332 350.04 350.08c8.701 8.701 20.722 14.083 34 14.083 26.556 0 48.083-21.528 48.083-48.083 0-13.278-5.382-25.299-14.083-34Z" data-tags="arrow-elbow-left-bold" glyph-name="arrow-elbow-left-bold" unicode=""/><glyph d="M976 672c0-26.51-21.49-48-48-48H400V212l110.04 110.08c8.701 8.701 20.722 14.083 34 14.083 26.556 0 48.083-21.528 48.083-48.083 0-13.278-5.382-25.299-14.083-34l-192-192c-8.692-8.721-20.716-14.118-34-14.118s-25.308 5.396-33.999 14.116L126.04 254.079c-8.701 8.701-14.083 20.722-14.083 34 0 26.556 21.528 48.083 48.083 48.083 13.278 0 25.299-5.382 34-14.083L304 211.999v460c0 26.51 21.49 48 48 48h576c26.51 0 48-21.49 48-48Z" data-tags="arrow-elbow-left-down-bold" glyph-name="arrow-elbow-left-down-bold" unicode=""/><glyph d="M976 192c0-26.51-21.49-48-48-48H352c-26.51 0-48 21.49-48 48v460L193.96 542.04c-8.701-8.701-20.722-14.083-34-14.083-26.556 0-48.083 21.528-48.083 48.083 0 13.278 5.382 25.299 14.083 34l192 192c8.692 8.721 20.716 14.118 34 14.118s25.308-5.396 33.999-14.116L577.96 610.041c8.701-8.701 14.083-20.722 14.083-34 0-26.556-21.528-48.083-48.083-48.083-13.278 0-25.299 5.382-34 14.083L400 652.001v-412h528c26.51 0 48-21.49 48-48Z" data-tags="arrow-elbow-left-up-bold" glyph-name="arrow-elbow-left-up-bold" unicode=""/><glyph d="M976 640V352c0-26.51-21.49-48-48-48s-48 21.49-48 48v172L513.96 157.92c-8.692-8.721-20.716-14.118-34-14.118s-25.308 5.396-33.999 14.116L61.96 541.919c-8.701 8.701-14.083 20.722-14.083 34 0 26.556 21.528 48.083 48.083 48.083 13.278 0 25.299-5.382 34-14.083L480 259.999l332 332H640c-26.51 0-48 21.49-48 48s21.49 48 48 48h288c26.51 0 48-21.49 48-48Z" data-tags="arrow-elbow-right-bold" glyph-name="arrow-elbow-right-bold" unicode=""/><glyph d="m929.96 286.04-192-192c-8.692-8.721-20.716-14.118-34-14.118s-25.308 5.396-33.999 14.116L477.96 286.039c-8.701 8.701-14.083 20.722-14.083 34 0 26.556 21.528 48.083 48.083 48.083 13.278 0 25.299-5.382 34-14.083L656 243.999v412H128c-26.51 0-48 21.49-48 48s21.49 48 48 48h576c26.51 0 48-21.49 48-48v-460l110.04 110.08c8.701 8.701 20.722 14.083 34 14.083 26.556 0 48.083-21.528 48.083-48.083 0-13.278-5.382-25.299-14.083-34Z" data-tags="arrow-elbow-right-down-bold" glyph-name="arrow-elbow-right-down-bold" unicode=""/><glyph d="M897.96 542.04c-8.692-8.721-20.716-14.118-34-14.118s-25.308 5.396-33.999 14.116L720 651.999v-460c0-26.51-21.49-48-48-48H96c-26.51 0-48 21.49-48 48s21.49 48 48 48h528v412l-110.04-110.08c-8.701-8.701-20.722-14.083-34-14.083-26.556 0-48.083 21.528-48.083 48.083 0 13.278 5.382 25.299 14.083 34l192 192c8.692 8.721 20.716 14.118 34 14.118s25.308-5.396 33.999-14.116L897.96 609.92c8.686-8.686 14.058-20.686 14.058-33.94s-5.372-25.254-14.058-33.94" data-tags="arrow-elbow-right-up-bold" glyph-name="arrow-elbow-right-up-bold" unicode=""/><glyph d="M816 640V64c0-26.51-21.49-48-48-48s-48 21.49-48 48v528H308l110.08-110.04c8.701-8.701 14.083-20.722 14.083-34 0-26.556-21.528-48.083-48.083-48.083-13.278 0-25.299 5.382-34 14.083l-192 192c-8.721 8.692-14.118 20.716-14.118 34s5.396 25.308 14.116 33.999L350.079 865.96c8.701 8.701 20.722 14.083 34 14.083 26.556 0 48.083-21.528 48.083-48.083 0-13.278-5.382-25.299-14.083-34L307.999 688h460c26.51 0 48-21.49 48-48Z" data-tags="arrow-elbow-up-left-bold" glyph-name="arrow-elbow-up-left-bold" unicode=""/><glyph d="m897.96 606.04-192-192c-8.701-8.701-20.722-14.083-34-14.083-26.556 0-48.083 21.528-48.083 48.083 0 13.278 5.382 25.299 14.083 34L748 592H336V64c0-26.51-21.49-48-48-48s-48 21.49-48 48v576c0 26.51 21.49 48 48 48h460L638.04 798.04c-8.701 8.701-14.083 20.722-14.083 34 0 26.556 21.528 48.083 48.083 48.083 13.278 0 25.299-5.382 34-14.083l192-192c8.698-8.688 14.078-20.696 14.078-33.96 0-13.304-5.413-25.344-14.156-34.038Z" data-tags="arrow-elbow-up-right-bold" glyph-name="arrow-elbow-up-right-bold" unicode=""/><glyph d="M912 448c0-26.51-21.49-48-48-48H276l206.08-206.04c8.701-8.701 14.083-20.722 14.083-34 0-26.556-21.528-48.083-48.083-48.083-13.278 0-25.299 5.382-34 14.083l-288 288c-8.721 8.692-14.118 20.716-14.118 34s5.396 25.308 14.116 33.999L414.079 769.96c8.701 8.701 20.722 14.083 34 14.083 26.556 0 48.083-21.528 48.083-48.083 0-13.278-5.382-25.299-14.083-34L275.999 496h588c26.51 0 48-21.49 48-48Z" data-tags="arrow-left-bold" glyph-name="arrow-left-bold" unicode=""/><glyph d="M512 880C273.413 880 80 686.587 80 448S273.413 16 512 16s432 193.413 432 432c-.273 238.477-193.523 431.727-431.974 432Zm0-768c-185.568 0-336 150.432-336 336s150.432 336 336 336 336-150.432 336-336c-.205-185.485-150.515-335.795-335.98-336Zm208 336c0-26.51-21.49-48-48-48H468l46.08-46.04c8.701-8.701 14.083-20.722 14.083-34 0-26.556-21.528-48.083-48.083-48.083-13.278 0-25.299 5.382-34 14.083l-128 128c-8.721 8.692-14.118 20.716-14.118 34s5.396 25.308 14.116 33.999L446.079 609.96c8.701 8.701 20.722 14.083 34 14.083 26.556 0 48.083-21.528 48.083-48.083 0-13.278-5.382-25.299-14.083-34L467.999 496h204c26.51 0 48-21.49 48-48Z" data-tags="arrow-circle-left-bold" glyph-name="arrow-circle-left-bold" unicode=""/><glyph d="M190.04 510.04c-8.701 8.701-14.083 20.722-14.083 34 0 26.556 21.528 48.083 48.083 48.083 13.278 0 25.299-5.382 34-14.083L464 372v460c0 26.51 21.49 48 48 48s48-21.49 48-48V372l206.04 206.08c8.701 8.701 20.722 14.083 34 14.083 26.556 0 48.083-21.528 48.083-48.083 0-13.278-5.382-25.299-14.083-34l-288-288c-8.692-8.721-20.716-14.118-34-14.118s-25.308 5.396-33.999 14.116l-.001.001ZM864 144H160c-26.51 0-48-21.49-48-48s21.49-48 48-48h704c26.51 0 48 21.49 48 48s-21.49 48-48 48" data-tags="arrow-line-down-bold" glyph-name="arrow-line-down-bold" unicode=""/><glyph d="M944 768c0-26.51-21.49-48-48-48H192c-26.51 0-48 21.49-48 48s21.49 48 48 48h704c26.51 0 48-21.49 48-48M702.04 609.96 336 244v268c0 26.51-21.49 48-48 48s-48-21.49-48-48V128c0-26.51 21.49-48 48-48h384c26.51 0 48 21.49 48 48s-21.49 48-48 48H404l366.08 366.04c8.701 8.701 14.083 20.722 14.083 34 0 26.556-21.528 48.083-48.083 48.083-13.278 0-25.299-5.382-34-14.083Z" data-tags="arrow-line-down-left-bold" glyph-name="arrow-line-down-left-bold" unicode=""/><glyph d="M912 800c0-26.51-21.49-48-48-48H160c-26.51 0-48 21.49-48 48s21.49 48 48 48h704c26.51 0 48-21.49 48-48M768 592c-26.51 0-48-21.49-48-48V276L353.96 641.96c-8.701 8.701-20.722 14.083-34 14.083-26.556 0-48.083-21.528-48.083-48.083 0-13.278 5.382-25.299 14.083-34L652 208H384c-26.51 0-48-21.49-48-48s21.49-48 48-48h384c26.51 0 48 21.49 48 48v384c0 26.51-21.49 48-48 48" data-tags="arrow-line-down-right-bold" glyph-name="arrow-line-down-right-bold" unicode=""/><glyph d="M944 448c0-26.51-21.49-48-48-48H436l206.08-206.04c8.701-8.701 14.083-20.722 14.083-34 0-26.556-21.528-48.083-48.083-48.083-13.278 0-25.299 5.382-34 14.083l-288 288c-8.721 8.692-14.118 20.716-14.118 34s5.396 25.308 14.116 33.999L574.079 769.96c8.701 8.701 20.722 14.083 34 14.083 26.556 0 48.083-21.528 48.083-48.083 0-13.278-5.382-25.299-14.083-34L435.999 496h460c26.51 0 48-21.49 48-48ZM160 848c-26.51 0-48-21.49-48-48V96c0-26.51 21.49-48 48-48s48 21.49 48 48v704c0 26.51-21.49 48-48 48" data-tags="arrow-line-left-bold" glyph-name="arrow-line-left-bold" unicode=""/><glyph d="M737.96 481.96c8.721-8.692 14.118-20.716 14.118-34s-5.396-25.308-14.116-33.999L449.961 125.96c-8.701-8.701-20.722-14.083-34-14.083-26.556 0-48.083 21.528-48.083 48.083 0 13.278 5.382 25.299 14.083 34L588.001 400h-460c-26.51 0-48 21.49-48 48s21.49 48 48 48h460l-205.96 206.04c-8.701 8.701-14.083 20.722-14.083 34 0 26.556 21.528 48.083 48.083 48.083 13.278 0 25.299-5.382 34-14.083ZM864 848c-26.51 0-48-21.49-48-48V96c0-26.51 21.49-48 48-48s48 21.49 48 48v704c0 26.51-21.49 48-48 48" data-tags="arrow-line-right-bold" glyph-name="arrow-line-right-bold" unicode=""/><glyph d="M833.96 385.96c8.701-8.701 14.083-20.722 14.083-34 0-26.556-21.528-48.083-48.083-48.083-13.278 0-25.299 5.382-34 14.083L560 524V64c0-26.51-21.49-48-48-48s-48 21.49-48 48v460L257.96 318.04c-8.701-8.701-20.722-14.083-34-14.083-26.556 0-48.083 21.528-48.083 48.083 0 13.278 5.382 25.299 14.083 34l288 288c8.692 8.721 20.716 14.118 34 14.118s25.308-5.396 33.999-14.116l.001-.001ZM864 848H160c-26.51 0-48-21.49-48-48s21.49-48 48-48h704c26.51 0 48 21.49 48 48s-21.49 48-48 48" data-tags="arrow-line-up-bold" glyph-name="arrow-line-up-bold" unicode=""/><glyph d="M944 128c0-26.51-21.49-48-48-48H192c-26.51 0-48 21.49-48 48s21.49 48 48 48h704c26.51 0 48-21.49 48-48M288 336c26.51 0 48 21.49 48 48v268l366.04-366.08c8.701-8.701 20.722-14.083 34-14.083 26.556 0 48.083 21.528 48.083 48.083 0 13.278-5.382 25.299-14.083 34L404 720h268c26.51 0 48 21.49 48 48s-21.49 48-48 48H288c-26.51 0-48-21.49-48-48V384c0-26.51 21.49-48 48-48" data-tags="arrow-line-up-left-bold" glyph-name="arrow-line-up-left-bold" unicode=""/><glyph d="M912 96c0-26.51-21.49-48-48-48H160c-26.51 0-48 21.49-48 48s21.49 48 48 48h704c26.51 0 48-21.49 48-48M320 240h.038c13.245 0 25.238 5.365 33.923 14.04L720.001 620V352c0-26.51 21.49-48 48-48s48 21.49 48 48v384c0 26.51-21.49 48-48 48h-384c-26.51 0-48-21.49-48-48s21.49-48 48-48h268l-365.96-366.04c-8.698-8.688-14.078-20.696-14.078-33.96 0-26.51 21.49-48 48-48h.04-.002Z" data-tags="arrow-line-up-right-bold" glyph-name="arrow-line-up-right-bold" unicode=""/><glyph d="m897.96 414.04-288-288c-8.701-8.701-20.722-14.083-34-14.083-26.556 0-48.083 21.528-48.083 48.083 0 13.278 5.382 25.299 14.083 34L748 400H160c-26.51 0-48 21.49-48 48s21.49 48 48 48h588L542.04 702.08c-8.701 8.701-14.083 20.722-14.083 34 0 26.556 21.528 48.083 48.083 48.083 13.278 0 25.299-5.382 34-14.083l288-288c8.71-8.69 14.098-20.706 14.098-33.98 0-13.314-5.421-25.362-14.175-34.057Z" data-tags="arrow-right-bold" glyph-name="arrow-right-bold" unicode=""/><glyph d="M832 848H192c-44.183 0-80-35.817-80-80V128c0-44.183 35.817-80 80-80h640c44.183 0 80 35.817 80 80v640c0 44.183-35.817 80-80 80m-16-704H208v608h608ZM350.04 382.04c-8.701 8.701-14.083 20.722-14.083 34 0 26.556 21.528 48.083 48.083 48.083 13.278 0 25.299-5.382 34-14.083L464 404v204c0 26.51 21.49 48 48 48s48-21.49 48-48V404l46.04 46.08c8.701 8.701 20.722 14.083 34 14.083 26.556 0 48.083-21.528 48.083-48.083 0-13.278-5.382-25.299-14.083-34l-128-128c-8.692-8.721-20.716-14.118-34-14.118s-25.308 5.396-33.999 14.116l-.001.001Z" data-tags="arrow-square-down-bold" glyph-name="arrow-square-down-bold" unicode=""/><glyph d="M832 848H192c-44.183 0-80-35.817-80-80V128c0-44.183 35.817-80 80-80h640c44.183 0 80 35.817 80 80v640c0 44.183-35.817 80-80 80m-16-704H208v608h608ZM336 320v192c0 26.51 21.49 48 48 48s48-21.49 48-48v-76l174.04 174.08c8.701 8.701 20.722 14.083 34 14.083 26.556 0 48.083-21.528 48.083-48.083 0-13.278-5.382-25.299-14.083-34L500 368h76c26.51 0 48-21.49 48-48s-21.49-48-48-48H384c-26.51 0-48 21.49-48 48" data-tags="arrow-square-down-left-bold" glyph-name="arrow-square-down-left-bold" unicode=""/><glyph d="M832 848H192c-44.183 0-80-35.817-80-80V128c0-44.183 35.817-80 80-80h640c44.183 0 80 35.817 80 80v640c0 44.183-35.817 80-80 80m-16-704H208v608h608ZM350.04 542.04c-8.701 8.701-14.083 20.722-14.083 34 0 26.556 21.528 48.083 48.083 48.083 13.278 0 25.299-5.382 34-14.083L592 436v76c0 26.51 21.49 48 48 48s48-21.49 48-48V320c0-26.51-21.49-48-48-48H448c-26.51 0-48 21.49-48 48s21.49 48 48 48h76Z" data-tags="arrow-square-down-right-bold" glyph-name="arrow-square-down-right-bold" unicode=""/><glyph d="M832 848H192c-44.183 0-80-35.817-80-80V128c0-44.183 35.817-80 80-80h640c44.183 0 80 35.817 80 80v640c0 44.183-35.817 80-80 80m-16-704H208v608h608ZM318.04 414.04c-8.721 8.692-14.118 20.716-14.118 34s5.396 25.308 14.116 33.999L446.039 610.04c8.701 8.701 20.722 14.083 34 14.083 26.556 0 48.083-21.528 48.083-48.083 0-13.278-5.382-25.299-14.083-34L467.999 496h204c26.51 0 48-21.49 48-48s-21.49-48-48-48h-204l46.08-46.04c8.701-8.701 14.083-20.722 14.083-34 0-26.556-21.528-48.083-48.083-48.083-13.278 0-25.299 5.382-34 14.083Z" data-tags="arrow-square-left-bold" glyph-name="arrow-square-left-bold" unicode=""/><glyph d="M832 848H192c-44.183 0-80-35.817-80-80V128c0-44.183 35.817-80 80-80h640c44.183 0 80 35.817 80 80v640c0 44.183-35.817 80-80 80m-16-704H208v608h608ZM304 448c0 26.51 21.49 48 48 48h204l-46.08 46.04c-8.701 8.701-14.083 20.722-14.083 34 0 26.556 21.528 48.083 48.083 48.083 13.278 0 25.299-5.382 34-14.083l128-128c8.721-8.692 14.118-20.716 14.118-34s-5.396-25.308-14.116-33.999L577.921 286.04c-8.701-8.701-20.722-14.083-34-14.083-26.556 0-48.083 21.528-48.083 48.083 0 13.278 5.382 25.299 14.083 34l46.08 45.96h-204c-26.51 0-48 21.49-48 48Z" data-tags="arrow-square-right-bold" glyph-name="arrow-square-right-bold" unicode=""/><glyph d="M832 848H192c-44.183 0-80-35.817-80-80V128c0-44.183 35.817-80 80-80h640c44.183 0 80 35.817 80 80v640c0 44.183-35.817 80-80 80m-16-704H208v608h608ZM350.04 446.04c-8.721 8.692-14.118 20.716-14.118 34s5.396 25.308 14.116 33.999L478.039 642.04c8.692 8.721 20.716 14.118 34 14.118s25.308-5.396 33.999-14.116l128.001-128.001c8.701-8.701 14.083-20.722 14.083-34 0-26.556-21.528-48.083-48.083-48.083-13.278 0-25.299 5.382-34 14.083l-46.04 45.96v-204c0-26.51-21.49-48-48-48s-48 21.49-48 48v204l-46.04-46.08c-8.682-8.662-20.666-14.018-33.9-14.018-13.294 0-25.326 5.404-34.018 14.136l-.002.002Z" data-tags="arrow-square-up-bold" glyph-name="arrow-square-up-bold" unicode=""/><glyph d="M832 848H192c-44.183 0-80-35.817-80-80V128c0-44.183 35.817-80 80-80h640c44.183 0 80 35.817 80 80v640c0 44.183-35.817 80-80 80m-16-704H208v608h608ZM336 384v192c0 26.51 21.49 48 48 48h192c26.51 0 48-21.49 48-48s-21.49-48-48-48h-76l174.08-174.04c8.701-8.701 14.083-20.722 14.083-34 0-26.556-21.528-48.083-48.083-48.083-13.278 0-25.299 5.382-34 14.083L432 460v-76c0-26.51-21.49-48-48-48s-48 21.49-48 48" data-tags="arrow-square-up-left-bold" glyph-name="arrow-square-up-left-bold" unicode=""/><glyph d="M832 848H192c-44.183 0-80-35.817-80-80V128c0-44.183 35.817-80 80-80h640c44.183 0 80 35.817 80 80v640c0 44.183-35.817 80-80 80m-16-704H208v608h608ZM350.04 286.04c-8.721 8.692-14.118 20.716-14.118 34s5.396 25.308 14.116 33.999L523.999 528h-76c-26.51 0-48 21.49-48 48s21.49 48 48 48h192c26.51 0 48-21.49 48-48V384c0-26.51-21.49-48-48-48s-48 21.49-48 48v76l-174.04-174.08c-8.692-8.721-20.716-14.118-34-14.118s-25.308 5.396-33.999 14.116l-.001.001Z" data-tags="arrow-square-up-right-bold" glyph-name="arrow-square-up-right-bold" unicode=""/><glyph d="M944 512c-.159-150.157-121.843-271.841-271.985-272H244l110.08-110.04c8.701-8.701 14.083-20.722 14.083-34 0-26.556-21.528-48.083-48.083-48.083-13.278 0-25.299 5.382-34 14.083l-192 192c-8.721 8.692-14.118 20.716-14.118 34s5.396 25.308 14.116 33.999L286.079 513.96c8.701 8.701 20.722 14.083 34 14.083 26.556 0 48.083-21.528 48.083-48.083 0-13.278-5.382-25.299-14.083-34L243.999 336h428c97.202 0 176 78.798 176 176s-78.798 176-176 176h-352c-26.51 0-48 21.49-48 48s21.49 48 48 48h352c150.157-.159 271.841-121.843 272-271.985Z" data-tags="arrow-u-down-left-bold" glyph-name="arrow-u-down-left-bold" unicode=""/><glyph d="m929.96 254.04-192-192c-8.701-8.701-20.722-14.083-34-14.083-26.556 0-48.083 21.528-48.083 48.083 0 13.278 5.382 25.299 14.083 34L780 240H352C201.779 240 80 361.779 80 512s121.779 272 272 272h352c26.51 0 48-21.49 48-48s-21.49-48-48-48H352c-97.202 0-176-78.798-176-176s78.798-176 176-176h428L669.92 446.04c-8.701 8.701-14.083 20.722-14.083 34 0 26.556 21.528 48.083 48.083 48.083 13.278 0 25.299-5.382 34-14.083l192-192c8.733-8.694 14.138-20.726 14.138-34.02 0-13.274-5.388-25.29-14.097-33.979Z" data-tags="arrow-u-down-right-bold" glyph-name="arrow-u-down-right-bold" unicode=""/><glyph d="M848 608V256c0-26.51-21.49-48-48-48s-48 21.49-48 48v352c0 97.202-78.798 176-176 176s-176-78.798-176-176V180l110.04 110.08c8.701 8.701 20.722 14.083 34 14.083 26.556 0 48.083-21.528 48.083-48.083 0-13.278-5.382-25.299-14.083-34l-192-192c-8.692-8.721-20.716-14.118-34-14.118s-25.308 5.396-33.999 14.116L126.04 222.079c-8.701 8.701-14.083 20.722-14.083 34 0 26.556 21.528 48.083 48.083 48.083 13.278 0 25.299-5.382 34-14.083L304 179.999v428c0 150.221 121.779 272 272 272s272-121.779 272-272Z" data-tags="arrow-u-left-down-bold" glyph-name="arrow-u-left-down-bold" unicode=""/><glyph d="M848 640V288c0-150.221-121.779-272-272-272S304 137.779 304 288v428L193.96 606.04c-8.701-8.701-20.722-14.083-34-14.083-26.556 0-48.083 21.528-48.083 48.083 0 13.278 5.382 25.299 14.083 34l192 192c8.692 8.721 20.716 14.118 34 14.118s25.308-5.396 33.999-14.116L577.96 674.041c8.701-8.701 14.083-20.722 14.083-34 0-26.556-21.528-48.083-48.083-48.083-13.278 0-25.299 5.382-34 14.083L400 716.001v-428c0-97.202 78.798-176 176-176s176 78.798 176 176v352c0 26.51 21.49 48 48 48s48-21.49 48-48Z" data-tags="arrow-u-left-up-bold" glyph-name="arrow-u-left-up-bold" unicode=""/><glyph d="m897.96 222.04-192-192c-8.692-8.721-20.716-14.118-34-14.118s-25.308 5.396-33.999 14.116L445.96 222.039c-8.701 8.701-14.083 20.722-14.083 34 0 26.556 21.528 48.083 48.083 48.083 13.278 0 25.299-5.382 34-14.083L624 179.999v428c0 97.202-78.798 176-176 176s-176-78.798-176-176v-352c0-26.51-21.49-48-48-48s-48 21.49-48 48v352c0 150.221 121.779 272 272 272s272-121.779 272-272v-428l110.04 110.08c8.701 8.701 20.722 14.083 34 14.083 26.556 0 48.083-21.528 48.083-48.083 0-13.278-5.382-25.299-14.083-34Z" data-tags="arrow-u-right-down-bold" glyph-name="arrow-u-right-down-bold" unicode=""/><glyph d="M897.96 606.04c-8.692-8.721-20.716-14.118-34-14.118s-25.308 5.396-33.999 14.116L720 715.999v-428c0-150.221-121.779-272-272-272s-272 121.779-272 272v352c0 26.51 21.49 48 48 48s48-21.49 48-48v-352c0-97.202 78.798-176 176-176s176 78.798 176 176v428l-110.04-109.96c-8.701-8.701-20.722-14.083-34-14.083-26.556 0-48.083 21.528-48.083 48.083 0 13.278 5.382 25.299 14.083 34l192 192c8.692 8.721 20.716 14.118 34 14.118s25.308-5.396 33.999-14.116L897.96 674.04c8.721-8.692 14.118-20.716 14.118-34s-5.396-25.308-14.116-33.999l-.001-.001Z" data-tags="arrow-u-right-up-bold" glyph-name="arrow-u-right-up-bold" unicode=""/><glyph d="M944 384c-.159-150.157-121.843-271.841-271.985-272H320c-26.51 0-48 21.49-48 48s21.49 48 48 48h352c97.202 0 176 78.798 176 176s-78.798 176-176 176H244l110.08-110.04c8.701-8.701 14.083-20.722 14.083-34 0-26.556-21.528-48.083-48.083-48.083-13.278 0-25.299 5.382-34 14.083l-192 192c-8.721 8.692-14.118 20.716-14.118 34s5.396 25.308 14.116 33.999L286.079 833.96c8.701 8.701 20.722 14.083 34 14.083 26.556 0 48.083-21.528 48.083-48.083 0-13.278-5.382-25.299-14.083-34L243.999 656h428c150.148-.182 271.818-121.852 272-271.982Z" data-tags="arrow-u-up-left-bold" glyph-name="arrow-u-up-left-bold" unicode=""/><glyph d="M670.04 449.96 780 560H352c-97.202 0-176-78.798-176-176s78.798-176 176-176h352c26.51 0 48-21.49 48-48s-21.49-48-48-48H352C201.779 112 80 233.779 80 384s121.779 272 272 272h428L670.04 766.04c-8.701 8.701-14.083 20.722-14.083 34 0 26.556 21.528 48.083 48.083 48.083 13.278 0 25.299-5.382 34-14.083l192-192c8.721-8.692 14.118-20.716 14.118-34s-5.396-25.308-14.116-33.999L738.041 382.04c-8.701-8.701-20.722-14.083-34-14.083-26.556 0-48.083 21.528-48.083 48.083 0 13.278 5.382 25.299 14.083 34Z" data-tags="arrow-u-up-right-bold" glyph-name="arrow-u-up-right-bold" unicode=""/><glyph d="M833.96 478.04c-8.692-8.721-20.716-14.118-34-14.118s-25.308 5.396-33.999 14.116L560 683.999v-588c0-26.51-21.49-48-48-48s-48 21.49-48 48v588l-206.04-205.96c-8.701-8.701-20.722-14.083-34-14.083-26.556 0-48.083 21.528-48.083 48.083 0 13.278 5.382 25.299 14.083 34l288 288c8.692 8.721 20.716 14.118 34 14.118s25.308-5.396 33.999-14.116L833.96 546.04c8.721-8.692 14.118-20.716 14.118-34s-5.396-25.308-14.116-33.999l-.001-.001Z" data-tags="arrow-up-bold" glyph-name="arrow-up-bold" unicode=""/><glyph d="M801.96 158.04c-8.692-8.721-20.716-14.118-34-14.118s-25.308 5.396-33.999 14.116L304 587.999v-300c0-26.51-21.49-48-48-48s-48 21.49-48 48v416c0 26.51 21.49 48 48 48h416c26.51 0 48-21.49 48-48s-21.49-48-48-48H372l429.96-430.04c8.698-8.688 14.078-20.696 14.078-33.96s-5.38-25.272-14.077-33.96Z" data-tags="arrow-up-left-bold" glyph-name="arrow-up-left-bold" unicode=""/><glyph d="M816 704V288c0-26.51-21.49-48-48-48s-48 21.49-48 48v300L289.96 158.04c-8.701-8.701-20.722-14.083-34-14.083-26.556 0-48.083 21.528-48.083 48.083 0 13.278 5.382 25.299 14.083 34L652 656H352c-26.51 0-48 21.49-48 48s21.49 48 48 48h416c26.51 0 48-21.49 48-48" data-tags="arrow-up-right-bold" glyph-name="arrow-up-right-bold" unicode=""/><glyph d="M912 768V576c0-26.51-21.49-48-48-48H672c-26.51 0-48 21.49-48 48s21.49 48 48 48h76l-31.2 31.2c-54.524 54.787-129.907 88.774-213.229 89.04H501.8l-.661.001c-82.424 0-157.135-33.025-211.623-86.564l.044.043c-8.647-8.461-20.494-13.681-33.56-13.681-26.51 0-48.001 21.491-48.001 48.001 0 13.444 5.527 25.597 14.433 34.312l.009.008c71.671 70.414 170.017 113.881 278.516 113.881l1.016-.001h2.028c109.761-.309 209.016-45.036 280.785-117.144l.015-.016 31.2-31.08v76c0 26.51 21.49 48 48 48s48-21.49 48-48ZM734.44 238.28c-54.444-53.496-129.155-86.521-211.579-86.521l-.823.001h-1.677c-83.373.266-158.756 34.253-213.268 89.028l-.012.012-31.08 31.2h76c26.51 0 48 21.49 48 48s-21.49 48-48 48h-192c-26.51 0-48-21.49-48-48V128c0-26.51 21.49-48 48-48s48 21.49 48 48v76l31.2-31.2c71.8-72.079 171.055-116.765 280.747-117.04h2.293l.964-.001c108.499 0 206.845 43.467 278.574 113.938l-.058-.057c8.914 8.723 14.441 20.876 14.441 34.32 0 26.51-21.491 48.001-48.001 48.001-13.066 0-24.913-5.221-33.569-13.69l.009.008Z" data-tags="arrows-clockwise-bold" glyph-name="arrows-clockwise-bold" unicode=""/><glyph d="M352 528H160c-26.51 0-48 21.49-48 48v192c0 26.51 21.49 48 48 48s48-21.49 48-48v-76l31.2 31.2c71.8 72.079 171.055 116.765 280.747 117.04h2.293l.964.001c108.499 0 206.845-43.467 278.574-113.938l-.058.057c8.914-8.723 14.441-20.876 14.441-34.32 0-26.51-21.491-48.001-48.001-48.001-13.066 0-24.913 5.221-33.569 13.69l.009-.008c-54.747 53.504-129.721 86.514-212.405 86.514-83.945 0-159.943-34.024-214.955-89.034l-31.24-31.2h76c26.51 0 48-21.49 48-48s-21.49-48-48-48Zm512-160H672c-26.51 0-48-21.49-48-48s21.49-48 48-48h76l-31.2-31.2c-54.524-54.787-129.907-88.774-213.229-89.04H501.8l-.781-.001c-82.424 0-157.136 33.025-211.623 86.564l.044-.043c-8.647 8.461-20.494 13.681-33.56 13.681-26.51 0-48.001-21.491-48.001-48.001 0-13.444 5.527-25.597 14.433-34.312l.009-.008C293.992 99.226 392.338 55.759 500.837 55.759l1.016.001h2.148c109.703.354 208.893 45.073 280.625 117.144l.015.016 31.36 31.08v-76c0-26.51 21.49-48 48-48s48 21.49 48 48v192c0 26.51-21.49 48-48 48Z" data-tags="arrows-counter-clockwise-bold" glyph-name="arrows-counter-clockwise-bold" unicode=""/><glyph d="M481.96 289.96c8.721-8.692 14.118-20.716 14.118-34s-5.396-25.308-14.116-33.999L353.961 93.96c-8.692-8.721-20.716-14.118-34-14.118s-25.308 5.396-33.999 14.116L157.961 221.959c-8.701 8.701-14.083 20.722-14.083 34 0 26.556 21.528 48.083 48.083 48.083 13.278 0 25.299-5.382 34-14.083l46.04-45.96v524c0 26.51 21.49 48 48 48s48-21.49 48-48v-524l46.04 46.08c8.682 8.662 20.666 14.018 33.9 14.018 13.294 0 25.326-5.404 34.018-14.136l.002-.002Zm384 384-128 128c-8.692 8.721-20.716 14.118-34 14.118s-25.308-5.396-33.999-14.116L541.96 673.961c-8.701-8.701-14.083-20.722-14.083-34 0-26.556 21.528-48.083 48.083-48.083 13.278 0 25.299 5.382 34 14.083l46.04 46.04v-524c0-26.51 21.49-48 48-48s48 21.49 48 48v524l46.04-46.08c8.701-8.701 20.722-14.083 34-14.083 26.556 0 48.083 21.528 48.083 48.083 0 13.278-5.382 25.299-14.083 34Z" data-tags="arrows-down-up-bold" glyph-name="arrows-down-up-bold" unicode=""/><glyph d="M560 544v160c0 26.51 21.49 48 48 48s48-21.49 48-48v-44l142.04 142.08c8.701 8.701 20.722 14.083 34 14.083 26.556 0 48.083-21.528 48.083-48.083 0-13.278-5.382-25.299-14.083-34L724 592h44c26.51 0 48-21.49 48-48s-21.49-48-48-48H608c-26.51 0-48 21.49-48 48M416 400H256c-26.51 0-48-21.49-48-48s21.49-48 48-48h44L158.04 161.96c-8.701-8.701-14.083-20.722-14.083-34 0-26.556 21.528-48.083 48.083-48.083 13.278 0 25.299 5.382 34 14.083L368 236v-44c0-26.51 21.49-48 48-48s48 21.49 48 48v160c0 26.51-21.49 48-48 48m308-96h44c26.51 0 48 21.49 48 48s-21.49 48-48 48H608c-26.51 0-48-21.49-48-48V192c0-26.51 21.49-48 48-48s48 21.49 48 48v44L798.04 93.92c8.701-8.701 20.722-14.083 34-14.083 26.556 0 48.083 21.528 48.083 48.083 0 13.278-5.382 25.299-14.083 34ZM416 752c-26.51 0-48-21.49-48-48v-44L225.96 801.96c-8.701 8.701-20.722 14.083-34 14.083-26.556 0-48.083-21.528-48.083-48.083 0-13.278 5.382-25.299 14.083-34L300 592h-44c-26.51 0-48-21.49-48-48s21.49-48 48-48h160c26.51 0 48 21.49 48 48v160c0 26.51-21.49 48-48 48" data-tags="arrows-in-bold" glyph-name="arrows-in-bold" unicode=""/><glyph d="M350.04 670.04c-8.701 8.701-14.083 20.722-14.083 34 0 26.556 21.528 48.083 48.083 48.083 13.278 0 25.299-5.382 34-14.083L464 692v172c0 26.51 21.49 48 48 48s48-21.49 48-48V692l46.04 46.08c8.701 8.701 20.722 14.083 34 14.083 26.556 0 48.083-21.528 48.083-48.083 0-13.278-5.382-25.299-14.083-34l-128-128c-8.692-8.721-20.716-14.118-34-14.118s-25.308 5.396-33.999 14.116l-.001.001Zm196-316c-8.692 8.721-20.716 14.118-34 14.118s-25.308-5.396-33.999-14.116L350.04 226.041c-8.701-8.701-14.083-20.722-14.083-34 0-26.556 21.528-48.083 48.083-48.083 13.278 0 25.299 5.382 34 14.083l45.96 45.96v-172c0-26.51 21.49-48 48-48s48 21.49 48 48v172l46.04-46.08c8.701-8.701 20.722-14.083 34-14.083 26.556 0 48.083 21.528 48.083 48.083 0 13.278-5.382 25.299-14.083 34ZM928 496H756l46.08 46.04c8.701 8.701 14.083 20.722 14.083 34 0 26.556-21.528 48.083-48.083 48.083-13.278 0-25.299-5.382-34-14.083l-128-128c-8.721-8.692-14.118-20.716-14.118-34s5.396-25.308 14.116-33.999L734.079 286.04c8.701-8.701 20.722-14.083 34-14.083 26.556 0 48.083 21.528 48.083 48.083 0 13.278-5.382 25.299-14.083 34L755.999 400h172c26.51 0 48 21.49 48 48s-21.49 48-48 48Zm-510.04-14.04-128 128c-8.701 8.701-20.722 14.083-34 14.083-26.556 0-48.083-21.528-48.083-48.083 0-13.278 5.382-25.299 14.083-34L268 496H96c-26.51 0-48-21.49-48-48s21.49-48 48-48h172l-45.96-46.04c-8.701-8.701-14.083-20.722-14.083-34 0-26.556 21.528-48.083 48.083-48.083 13.278 0 25.299 5.382 34 14.083l128 128c8.698 8.688 14.078 20.696 14.078 33.96 0 13.304-5.413 25.344-14.156 34.038Z" data-tags="arrows-in-cardinal-bold" glyph-name="arrows-in-cardinal-bold" unicode=""/><glyph d="M865.96 734.08 708 576h76c26.51 0 48-21.49 48-48s-21.49-48-48-48H592c-26.51 0-48 21.49-48 48v192c0 26.51 21.49 48 48 48s48-21.49 48-48v-76l158.04 158.08c8.701 8.701 20.722 14.083 34 14.083 26.556 0 48.083-21.528 48.083-48.083 0-13.278-5.382-25.299-14.083-34ZM432 416H240c-26.51 0-48-21.49-48-48s21.49-48 48-48h76L158.04 161.96c-8.701-8.701-14.083-20.722-14.083-34 0-26.556 21.528-48.083 48.083-48.083 13.278 0 25.299 5.382 34 14.083L384 252v-76c0-26.51 21.49-48 48-48s48 21.49 48 48v192c0 26.51-21.49 48-48 48" data-tags="arrows-in-simple-bold" glyph-name="arrows-in-simple-bold" unicode=""/><glyph d="m865.96 222.04-128-128c-8.701-8.701-20.722-14.083-34-14.083-26.556 0-48.083 21.528-48.083 48.083 0 13.278 5.382 25.299 14.083 34L716 208H192c-26.51 0-48 21.49-48 48s21.49 48 48 48h524l-46.08 46.04c-8.701 8.701-14.083 20.722-14.083 34 0 26.556 21.528 48.083 48.083 48.083 13.278 0 25.299-5.382 34-14.083l128-128c8.733-8.694 14.138-20.726 14.138-34.02 0-13.274-5.388-25.29-14.097-33.979Zm-580 256c8.701-8.701 20.722-14.083 34-14.083 26.556 0 48.083 21.528 48.083 48.083 0 13.278-5.382 25.299-14.083 34L308 592h524c26.51 0 48 21.49 48 48s-21.49 48-48 48H308l45.96 46.04c8.701 8.701 14.083 20.722 14.083 34 0 26.556-21.528 48.083-48.083 48.083-13.278 0-25.299-5.382-34-14.083l-128-128c-8.721-8.692-14.118-20.716-14.118-34s5.396-25.308 14.116-33.999l.001-.001Z" data-tags="arrows-left-right-bold" glyph-name="arrows-left-right-bold" unicode=""/><glyph d="M880 768V576c0-26.51-21.49-48-48-48s-48 21.49-48 48v76L641.96 509.92c-8.701-8.701-20.722-14.083-34-14.083-26.556 0-48.083 21.528-48.083 48.083 0 13.278 5.382 25.299 14.083 34L716 720h-76c-26.51 0-48 21.49-48 48s21.49 48 48 48h192c26.51 0 48-21.49 48-48M382.04 385.96 240 244v76c0 26.51-21.49 48-48 48s-48-21.49-48-48V128c0-26.51 21.49-48 48-48h192c26.51 0 48 21.49 48 48s-21.49 48-48 48h-76l142.08 142.04c8.701 8.701 14.083 20.722 14.083 34 0 26.556-21.528 48.083-48.083 48.083-13.278 0-25.299-5.382-34-14.083ZM832 368c-26.51 0-48-21.49-48-48v-76L641.96 386.08c-8.701 8.701-20.722 14.083-34 14.083-26.556 0-48.083-21.528-48.083-48.083 0-13.278 5.382-25.299 14.083-34L716 176h-76c-26.51 0-48-21.49-48-48s21.49-48 48-48h192c26.51 0 48 21.49 48 48v192c0 26.51-21.49 48-48 48M308 720h76c26.51 0 48 21.49 48 48s-21.49 48-48 48H192c-26.51 0-48-21.49-48-48V576c0-26.51 21.49-48 48-48s48 21.49 48 48v76l142.04-142.08c8.701-8.701 20.722-14.083 34-14.083 26.556 0 48.083 21.528 48.083 48.083 0 13.278-5.382 25.299-14.083 34Z" data-tags="arrows-out-bold" glyph-name="arrows-out-bold" unicode=""/><glyph d="M350.04 702.04c-8.721 8.692-14.118 20.716-14.118 34s5.396 25.308 14.116 33.999L478.039 898.04c8.692 8.721 20.716 14.118 34 14.118s25.308-5.396 33.999-14.116l128.001-128.001c8.701-8.701 14.083-20.722 14.083-34 0-26.556-21.528-48.083-48.083-48.083-13.278 0-25.299 5.382-34 14.083l-46.04 45.96v-172c0-26.51-21.49-48-48-48s-48 21.49-48 48v172l-46.04-45.96c-8.688-8.698-20.696-14.078-33.96-14.078s-25.272 5.38-33.96 14.077Zm256-508L560 148v172c0 26.51-21.49 48-48 48s-48-21.49-48-48V148l-46.04 46.08c-8.701 8.701-20.722 14.083-34 14.083-26.556 0-48.083-21.528-48.083-48.083 0-13.278 5.382-25.299 14.083-34l128-128c8.692-8.721 20.716-14.118 34-14.118s25.308 5.396 33.999 14.116L673.96 126.079c8.701 8.701 14.083 20.722 14.083 34 0 26.556-21.528 48.083-48.083 48.083-13.278 0-25.299-5.382-34-14.083Zm356 288-128 128c-8.701 8.701-20.722 14.083-34 14.083-26.556 0-48.083-21.528-48.083-48.083 0-13.278 5.382-25.299 14.083-34L812 496H640c-26.51 0-48-21.49-48-48s21.49-48 48-48h172l-46.08-46.04c-8.701-8.701-14.083-20.722-14.083-34 0-26.556 21.528-48.083 48.083-48.083 13.278 0 25.299 5.382 34 14.083l128 128c8.733 8.694 14.138 20.726 14.138 34.02 0 13.274-5.388 25.29-14.097 33.979l-.001.001ZM212 400h172c26.51 0 48 21.49 48 48s-21.49 48-48 48H212l46.08 46.04c8.701 8.701 14.083 20.722 14.083 34 0 26.556-21.528 48.083-48.083 48.083-13.278 0-25.299-5.382-34-14.083l-128-128c-8.721-8.692-14.118-20.716-14.118-34s5.396-25.308 14.116-33.999L190.079 286.04c8.701-8.701 20.722-14.083 34-14.083 26.556 0 48.083 21.528 48.083 48.083 0 13.278-5.382 25.299-14.083 34Z" data-tags="arrows-out-cardinal-bold" glyph-name="arrows-out-cardinal-bold" unicode=""/><glyph d="M880 768V576c0-26.51-21.49-48-48-48s-48 21.49-48 48v76L625.96 493.92c-8.701-8.701-20.722-14.083-34-14.083-26.556 0-48.083 21.528-48.083 48.083 0 13.278 5.382 25.299 14.083 34L716 720h-76c-26.51 0-48 21.49-48 48s21.49 48 48 48h192c26.51 0 48-21.49 48-48M398.04 401.96 240 244v76c0 26.51-21.49 48-48 48s-48-21.49-48-48V128c0-26.51 21.49-48 48-48h192c26.51 0 48 21.49 48 48s-21.49 48-48 48h-76l158.08 158.04c8.701 8.701 14.083 20.722 14.083 34 0 26.556-21.528 48.083-48.083 48.083-13.278 0-25.299-5.382-34-14.083Z" data-tags="arrows-out-simple-bold" glyph-name="arrows-out-simple-bold" unicode=""/><glyph d="M864 816H160c-44.183 0-80-35.817-80-80V160c0-44.183 35.817-80 80-80h704c44.183 0 80 35.817 80 80v576c0 44.183-35.817 80-80 80m-16-640H176v544h672ZM272 592c0 26.51 21.49 48 48 48h384c26.51 0 48-21.49 48-48s-21.49-48-48-48H320c-26.51 0-48 21.49-48 48m0-144c0 26.51 21.49 48 48 48h384c26.51 0 48-21.49 48-48s-21.49-48-48-48H320c-26.51 0-48 21.49-48 48m0-144c0 26.51 21.49 48 48 48h384c26.51 0 48-21.49 48-48s-21.49-48-48-48H320c-26.51 0-48 21.49-48 48" data-tags="article-bold" glyph-name="article-bold" unicode=""/><glyph d="M873.16 231.32c-8.538-14.07-23.775-23.327-41.173-23.327-9.125 0-17.655 2.546-24.919 6.967l.212-.12L560 363.24V96c0-26.51-21.49-48-48-48s-48 21.49-48 48v267.24l-247.28-148.4c-7.05-4.298-15.578-6.842-24.7-6.842-26.511 0-48.002 21.491-48.002 48.002 0 17.389 9.246 32.618 23.09 41.04l.212.12L418.72 448l-251.4 150.84c-14.056 8.542-23.302 23.771-23.302 41.16 0 26.511 21.491 48.002 48.002 48.002 9.122 0 17.65-2.545 24.912-6.962l-.212.12L464 532.76V800c0 26.51 21.49 48 48 48s48-21.49 48-48V532.76l247.28 148.4c7.05 4.298 15.578 6.842 24.7 6.842 26.511 0 48.002-21.491 48.002-48.002 0-17.389-9.246-32.618-23.09-41.04l-.212-.12L605.28 448l251.4-150.84c14.06-8.54 23.309-23.771 23.309-41.163 0-9.113-2.539-17.633-6.949-24.89Z" data-tags="asterisk-bold" glyph-name="asterisk-bold" unicode=""/><glyph d="M512 880C273.413 880 80 686.587 80 448S273.413 16 512 16c89.08 0 182.76 26.92 250.56 72 13.003 8.731 21.446 23.379 21.446 40 0 26.524-21.502 48.026-48.026 48.026a47.8 47.8 0 0 1-26.752-8.135l.172.109c-52-34.52-127.56-56-197.4-56-185.568 0-336 150.432-336 336s150.432 336 336 336 336-150.432 336-336c0-37.16-6.68-68.32-18.76-87.8-10.56-16.96-24-24.2-45.24-24.2s-34.68 7.24-45.24 24.2c-12 19.48-18.76 50.64-18.76 87.8v160c-.003 26.508-21.492 47.995-48 47.995-21.572 0-39.82-14.23-45.87-33.815l-.09-.34c-32.172 21.413-71.707 34.168-114.222 34.168-114.875 0-208-93.125-208-208s93.125-208 208-208c58.734 0 111.782 24.344 149.604 63.492l.057.06c27.72-40.76 69.76-63.56 122.52-63.56 98.68 0 160 79.68 160 208-.273 238.477-193.523 431.727-431.974 432Zm0-544c-61.856 0-112 50.144-112 112s50.144 112 112 112 112-50.144 112-112-50.144-112-112-112" data-tags="at-bold" glyph-name="at-bold" unicode=""/><glyph d="M864 816H274.12c-28.963-.075-54.315-15.461-68.4-38.488l-.2-.352L22.84 472.68c-4.291-7.045-6.831-15.566-6.831-24.68s2.54-17.635 6.951-24.893l-.12.213 182.68-304.48c14.285-23.379 39.637-38.765 68.589-38.84H864c44.183 0 80 35.817 80 80v576c0 44.183-35.817 80-80 80m-16-640H283.2L120 448l163.2 272H848ZM414.04 385.96 476 448l-62.08 62.04c-8.701 8.701-14.083 20.722-14.083 34 0 26.556 21.528 48.083 48.083 48.083 13.278 0 25.299-5.382 34-14.083L544 516l62.04 62.08c8.701 8.701 20.722 14.083 34 14.083 26.556 0 48.083-21.528 48.083-48.083 0-13.278-5.382-25.299-14.083-34L612 448l62.08-62.04c8.701-8.701 14.083-20.722 14.083-34 0-26.556-21.528-48.083-48.083-48.083-13.278 0-25.299 5.382-34 14.083L544 380l-62.04-62.08c-8.701-8.701-20.722-14.083-34-14.083-26.556 0-48.083 21.528-48.083 48.083 0 13.278 5.382 25.299 14.083 34Z" data-tags="backspace-bold" glyph-name="backspace-bold" unicode=""/><glyph d="M864 720H719.32C710.352 827.413 620.96 911.195 512 911.195s-198.352-83.781-207.269-190.437l-.051-.758H160c-44.183 0-80-35.817-80-80V160c0-44.183 35.817-80 80-80h704c44.183 0 80 35.817 80 80v480c0 44.183-35.817 80-80 80m-352 96c56.206-.006 102.74-41.413 110.765-95.387l.075-.613H401.16c8.1 54.587 54.634 95.994 110.839 96Zm336-640H176v448h128v-48c0-26.51 21.49-48 48-48s48 21.49 48 48v48h224v-48c0-26.51 21.49-48 48-48s48 21.49 48 48v48h128Z" data-tags="bag-bold" glyph-name="bag-bold" unicode=""/><glyph d="m760.92 448 99.52 99.56c32.833 32.004 53.199 76.663 53.199 126.079 0 97.202-78.798 176-176 176-49.416 0-94.075-20.366-126.043-53.162l-.036-.037L512 696.92l-99.56 99.52c-32.004 32.833-76.663 53.199-126.079 53.199-97.202 0-176-78.798-176-176 0-49.416 20.366-94.075 53.162-126.043l.037-.036L263.08 448l-99.52-99.56c-32.833-32.004-53.199-76.663-53.199-126.079 0-97.202 78.798-176 176-176 49.416 0 94.075 20.366 126.043 53.162l.036.037L512 199.08l99.56-99.52c32.004-32.833 76.663-53.199 126.079-53.199 97.202 0 176 78.798 176 176 0 49.416-20.366 94.075-53.162 126.043l-.037.036Zm-81.48 280.56c14.568 15.068 34.963 24.423 57.543 24.423 44.183 0 80-35.817 80-80 0-22.58-9.355-42.976-24.401-57.521l-.022-.022L693 516 580 629ZM625.12 448 512 334.88 398.88 448 512 561.12ZM231.44 615.44c-15.068 14.568-24.423 34.963-24.423 57.543 0 44.183 35.817 80 80 80 22.58 0 42.976-9.355 57.521-24.401l.022-.022L444 629 331 516Zm113.12-448c-14.568-15.068-34.963-24.423-57.543-24.423-44.183 0-80 35.817-80 80 0 22.58 9.355 42.976 24.401 57.521l.022.022L331 380l113-113Zm448 0c-14.476-14.472-34.473-23.423-56.56-23.423s-42.084 8.951-56.56 23.423L580 267l113 113 99.56-99.56c14.472-14.476 23.423-34.473 23.423-56.56s-8.951-42.084-23.423-56.56Z" data-tags="bandaids-bold" glyph-name="bandaids-bold" unicode=""/><glyph d="M96 528h80V336h-48c-26.51 0-48-21.49-48-48s21.49-48 48-48h768c26.51 0 48 21.49 48 48s-21.49 48-48 48h-48v192h80.004c26.51 0 48 21.49 48 48 0 17.2-9.047 32.287-22.641 40.762l-.203.118-416 256c-7.156 4.471-15.849 7.122-25.16 7.122s-18.004-2.651-25.363-7.24l.203.118-416-256C57.043 608.287 47.996 593.2 47.996 576c0-26.51 21.49-48 48-48Zm176 0h96V336h-96Zm288 0V336h-96v192Zm192-192h-96v192h96ZM512 775.64 758.4 624H265.6ZM1008 128c0-26.51-21.49-48-48-48H64c-26.51 0-48 21.49-48 48s21.49 48 48 48h896c26.51 0 48-21.49 48-48" data-tags="bank-bold" glyph-name="bank-bold" unicode=""/><glyph d="M976 496v112c0 44.183-35.817 80-80 80h-64v16c0 44.183-35.817 80-80 80h-96c-44.183 0-80-35.817-80-80V496H448v208c0 44.183-35.817 80-80 80h-96c-44.183 0-80-35.817-80-80v-16h-64c-44.183 0-80-35.817-80-80V496c-26.51 0-48-21.49-48-48s21.49-48 48-48V288c0-44.183 35.817-80 80-80h64v-16c0-44.183 35.817-80 80-80h96c44.183 0 80 35.817 80 80v208h128V192c0-44.183 35.817-80 80-80h96c44.183 0 80 35.817 80 80v16h64c44.183 0 80 35.817 80 80v112c26.51 0 48 21.49 48 48s-21.49 48-48 48M144 304v288h48V304Zm208-96h-64v480h64Zm384 0h-64v480h64Zm144 96h-48v288h48Z" data-tags="barbell-bold" glyph-name="barbell-bold" unicode=""/><glyph d="M928 752V592c0-26.51-21.49-48-48-48s-48 21.49-48 48v112H720c-26.51 0-48 21.49-48 48s21.49 48 48 48h160c26.51 0 48-21.49 48-48M304 192H192v112c0 26.51-21.49 48-48 48s-48-21.49-48-48V144c0-26.51 21.49-48 48-48h160c26.51 0 48 21.49 48 48s-21.49 48-48 48m576 160c-26.51 0-48-21.49-48-48V192H720c-26.51 0-48-21.49-48-48s21.49-48 48-48h160c26.51 0 48 21.49 48 48v160c0 26.51-21.49 48-48 48M144 544c26.51 0 48 21.49 48 48v112h112c26.51 0 48 21.49 48 48s-21.49 48-48 48H144c-26.51 0-48-21.49-48-48V592c0-26.51 21.49-48 48-48m208 96c-26.51 0-48-21.49-48-48V304c0-26.51 21.49-48 48-48s48 21.49 48 48v288c0 26.51-21.49 48-48 48m368-336v288c0 26.51-21.49 48-48 48s-48-21.49-48-48V304c0-26.51 21.49-48 48-48s48 21.49 48 48M512 640c-26.51 0-48-21.49-48-48V304c0-26.51 21.49-48 48-48s48 21.49 48 48v288c0 26.51-21.49 48-48 48" data-tags="barcode-bold" glyph-name="barcode-bold" unicode=""/><glyph d="M784 752H112C50.144 752 0 701.856 0 640V256c0-61.856 50.144-112 112-112h672c61.856 0 112 50.144 112 112v384c0 61.856-50.144 112-112 112m16-496c0-8.837-7.163-16-16-16H112c-8.837 0-16 7.163-16 16v384c0 8.837 7.163 16 16 16h672c8.837 0 16-7.163 16-16Zm224 288V352c0-26.51-21.49-48-48-48s-48 21.49-48 48v192c0 26.51 21.49 48 48 48s48-21.49 48-48m-454.48-72c4.043-6.885 6.431-15.163 6.431-24s-2.388-17.115-6.553-24.227l.123.227-64-112c-8.356-14.843-24.01-24.705-41.968-24.705-26.51 0-48 21.49-48 48 0 8.96 2.455 17.347 6.73 24.525l-.122-.22 23.12 40.4H399.89c-26.51 0-48 21.49-48 48a47.8 47.8 0 0 0 6.553 24.227l-.123-.227 64 112c8.464 14.505 23.952 24.096 41.68 24.096 26.563 0 48.096-21.533 48.096-48.096a47.9 47.9 0 0 0-6.539-24.228l.123.228-22.96-40H528c17.654-.019 33.074-9.565 41.397-23.774Z" data-tags="battery-charging-bold" glyph-name="battery-charging-bold" unicode=""/><glyph d="M616.84 425.24c4.496-7.171 7.162-15.886 7.162-25.224a47.8 47.8 0 0 0-5.208-21.768l.126.272-64-128c-7.943-16.192-24.308-27.142-43.231-27.142-26.51 0-48 21.49-48 48a47.8 47.8 0 0 0 5.517 22.363l-.126-.262 29.24 58.52H448c-26.507.003-47.994 21.492-47.994 48a47.8 47.8 0 0 0 5.2 21.752l-.126-.272 64 128c7.943 16.192 24.308 27.142 43.231 27.142 26.51 0 48-21.49 48-48a47.8 47.8 0 0 0-5.517-22.363l.126.262L525.68 448h50.332c17.165 0 32.226-9.01 40.711-22.559ZM416 864h192c26.51 0 48 21.49 48 48s-21.49 48-48 48H416c-26.51 0-48-21.49-48-48s21.49-48 48-48m400-144V48c0-61.856-50.144-112-112-112H320c-61.856 0-112 50.144-112 112v672c0 61.856 50.144 112 112 112h384c61.856 0 112-50.144 112-112m-96 0c0 8.837-7.163 16-16 16H320c-8.837 0-16-7.163-16-16V48c0-8.837 7.163-16 16-16h384c8.837 0 16 7.163 16 16Z" data-tags="battery-charging-vertical-bold" glyph-name="battery-charging-vertical-bold" unicode=""/><glyph d="M784 752H112C50.144 752 0 701.856 0 640V256c0-61.856 50.144-112 112-112h672c61.856 0 112 50.144 112 112v384c0 61.856-50.144 112-112 112m16-496c0-8.837-7.163-16-16-16H112c-8.837 0-16 7.163-16 16v384c0 8.837 7.163 16 16 16h672c8.837 0 16-7.163 16-16Zm224 288V352c0-26.51-21.49-48-48-48s-48 21.49-48 48v192c0 26.51 21.49 48 48 48s48-21.49 48-48" data-tags="battery-empty-bold" glyph-name="battery-empty-bold" unicode=""/><glyph d="M784 752H112C50.144 752 0 701.856 0 640V256c0-61.856 50.144-112 112-112h672c61.856 0 112 50.144 112 112v384c0 61.856-50.144 112-112 112m16-496c0-8.837-7.163-16-16-16H112c-8.837 0-16 7.163-16 16v384c0 8.837 7.163 16 16 16h672c8.837 0 16-7.163 16-16Zm-64 288V352c0-26.51-21.49-48-48-48s-48 21.49-48 48v192c0 26.51 21.49 48 48 48s48-21.49 48-48m-160 0V352c0-26.51-21.49-48-48-48s-48 21.49-48 48v192c0 26.51 21.49 48 48 48s48-21.49 48-48m-160 0V352c0-26.51-21.49-48-48-48s-48 21.49-48 48v192c0 26.51 21.49 48 48 48s48-21.49 48-48m-160 0V352c0-26.51-21.49-48-48-48s-48 21.49-48 48v192c0 26.51 21.49 48 48 48s48-21.49 48-48m768 0V352c0-26.51-21.49-48-48-48s-48 21.49-48 48v192c0 26.51 21.49 48 48 48s48-21.49 48-48" data-tags="battery-full-bold" glyph-name="battery-full-bold" unicode=""/><glyph d="M784 752H112C50.144 752 0 701.856 0 640V256c0-61.856 50.144-112 112-112h672c61.856 0 112 50.144 112 112v384c0 61.856-50.144 112-112 112m16-496c0-8.837-7.163-16-16-16H112c-8.837 0-16 7.163-16 16v384c0 8.837 7.163 16 16 16h672c8.837 0 16-7.163 16-16ZM576 544V352c0-26.51-21.49-48-48-48s-48 21.49-48 48v192c0 26.51 21.49 48 48 48s48-21.49 48-48m-160 0V352c0-26.51-21.49-48-48-48s-48 21.49-48 48v192c0 26.51 21.49 48 48 48s48-21.49 48-48m-160 0V352c0-26.51-21.49-48-48-48s-48 21.49-48 48v192c0 26.51 21.49 48 48 48s48-21.49 48-48m768 0V352c0-26.51-21.49-48-48-48s-48 21.49-48 48v192c0 26.51 21.49 48 48 48s48-21.49 48-48" data-tags="battery-high-bold" glyph-name="battery-high-bold" unicode=""/><glyph d="M784 752H112C50.144 752 0 701.856 0 640V256c0-61.856 50.144-112 112-112h672c61.856 0 112 50.144 112 112v384c0 61.856-50.144 112-112 112m16-496c0-8.837-7.163-16-16-16H112c-8.837 0-16 7.163-16 16v384c0 8.837 7.163 16 16 16h672c8.837 0 16-7.163 16-16ZM256 544V352c0-26.51-21.49-48-48-48s-48 21.49-48 48v192c0 26.51 21.49 48 48 48s48-21.49 48-48m768 0V352c0-26.51-21.49-48-48-48s-48 21.49-48 48v192c0 26.51 21.49 48 48 48s48-21.49 48-48" data-tags="battery-low-bold" glyph-name="battery-low-bold" unicode=""/><glyph d="M784 752H112C50.144 752 0 701.856 0 640V256c0-61.856 50.144-112 112-112h672c61.856 0 112 50.144 112 112v384c0 61.856-50.144 112-112 112m16-496c0-8.837-7.163-16-16-16H112c-8.837 0-16 7.163-16 16v384c0 8.837 7.163 16 16 16h672c8.837 0 16-7.163 16-16ZM416 544V352c0-26.51-21.49-48-48-48s-48 21.49-48 48v192c0 26.51 21.49 48 48 48s48-21.49 48-48m-160 0V352c0-26.51-21.49-48-48-48s-48 21.49-48 48v192c0 26.51 21.49 48 48 48s48-21.49 48-48m768 0V352c0-26.51-21.49-48-48-48s-48 21.49-48 48v192c0 26.51 21.49 48 48 48s48-21.49 48-48" data-tags="battery-medium-bold" glyph-name="battery-medium-bold" unicode=""/><glyph d="M784 752H112C50.144 752 0 701.856 0 640V256c0-61.856 50.144-112 112-112h672c61.856 0 112 50.144 112 112v384c0 61.856-50.144 112-112 112m16-496c0-8.837-7.163-16-16-16H112c-8.837 0-16 7.163-16 16v384c0 8.837 7.163 16 16 16h672c8.837 0 16-7.163 16-16Zm224 288V352c0-26.51-21.49-48-48-48s-48 21.49-48 48v192c0 26.51 21.49 48 48 48s48-21.49 48-48m-624-48v64c0 26.51 21.49 48 48 48s48-21.49 48-48v-64c0-26.51-21.49-48-48-48s-48 21.49-48 48m112-144c0-35.346-28.654-64-64-64s-64 28.654-64 64 28.654 64 64 64 64-28.654 64-64" data-tags="battery-warning-bold" glyph-name="battery-warning-bold" unicode=""/><glyph d="M464 416v144c0 26.51 21.49 48 48 48s48-21.49 48-48V416c0-26.51-21.49-48-48-48s-48 21.49-48 48m48-96c-35.346 0-64-28.654-64-64s28.654-64 64-64 64 28.654 64 64-28.654 64-64 64m-96 544h192c26.51 0 48 21.49 48 48s-21.49 48-48 48H416c-26.51 0-48-21.49-48-48s21.49-48 48-48m400-144V48c0-61.856-50.144-112-112-112H320c-61.856 0-112 50.144-112 112v672c0 61.856 50.144 112 112 112h384c61.856 0 112-50.144 112-112m-96 0c0 8.837-7.163 16-16 16H320c-8.837 0-16-7.163-16-16V48c0-8.837 7.163-16 16-16h384c8.837 0 16 7.163 16 16Z" data-tags="battery-warning-vertical-bold" glyph-name="battery-warning-vertical-bold" unicode=""/><glyph d="M848 688H144v80c0 26.51-21.49 48-48 48s-48-21.49-48-48V128c0-26.51 21.49-48 48-48s48 21.49 48 48v112h784V128c0-26.51 21.49-48 48-48s48 21.49 48 48v384c-.114 97.156-78.844 175.886-175.989 176ZM400 336H144v256h256Zm528 0H496v256h352c44.183 0 80-35.817 80-80Z" data-tags="bed-bold" glyph-name="bed-bold" unicode=""/><glyph d="M901.16 296.28C866.44 356 848 441.72 848 544c0 185.568-150.432 336-336 336S176 729.568 176 544c0-102.32-18.36-188-53.08-247.72-6.845-11.573-10.89-25.506-10.89-40.383 0-14.68 3.938-28.44 10.816-40.282l-.206.384c13.865-24.063 39.446-40.002 68.75-40.002q.321 0 .643.003H336.72C345.139 85.885 420.397 15.904 512 15.904s166.861 69.981 175.227 159.397l.053.699H832l.49-.002c29.303 0 54.884 15.938 68.546 39.619l.203.382c6.733 11.499 10.709 25.32 10.709 40.071 0 14.807-4.006 28.677-10.994 40.587l.205-.378ZM512 112h-.016c-38.519 0-70.68 27.223-78.292 63.479l-.092.521h156.8c-7.704-36.777-39.865-64-78.384-64ZM218.64 272C254.04 344 272 435.44 272 544c0 132.548 107.452 240 240 240s240-107.452 240-240c0-108.52 17.92-200 53.32-272Z" data-tags="bell-bold" glyph-name="bell-bold" unicode=""/><glyph d="M901.16 296.28C866.44 356 848 441.72 848 544c0 185.568-150.432 336-336 336S176 729.568 176 544c0-102.32-18.36-188-53.08-247.72-6.845-11.573-10.89-25.506-10.89-40.383 0-14.68 3.938-28.44 10.816-40.282l-.206.384c13.865-24.063 39.446-40.002 68.75-40.002q.321 0 .643.003H832l.49-.002c29.303 0 54.884 15.938 68.546 39.619l.203.382c6.733 11.499 10.709 25.32 10.709 40.071 0 14.807-4.006 28.677-10.994 40.587l.205-.378ZM218.64 272C254.04 344 272 435.44 272 544c0 132.548 107.452 240 240 240s240-107.452 240-240c0-108.52 17.92-200 53.32-272ZM688 64c0-26.51-21.49-48-48-48H384c-26.51 0-48 21.49-48 48s21.49 48 48 48h256c26.51 0 48-21.49 48-48" data-tags="bell-simple-bold" glyph-name="bell-simple-bold" unicode=""/><glyph d="m867.52 128.28-640 704c-8.834 9.925-21.644 16.146-35.907 16.146-26.51 0-48-21.49-48-48 0-12.651 4.894-24.159 12.893-32.734l-.026.028 59.2-65.16c-24.986-45.707-39.681-100.127-39.681-157.979l.001-.613V544c0-102.32-18.36-188-53.08-247.72-6.82-11.557-10.85-25.465-10.85-40.313 0-14.708 3.953-28.493 10.855-40.35l-.206.383c13.846-24.062 39.413-40.002 68.703-40.002l.608.002h502.369l102.08-112.28c8.788-9.421 21.275-15.294 35.133-15.294 26.51 0 48 21.49 48 48 0 12.247-4.586 23.422-12.135 31.902ZM218.72 272C254.08 344 272 435.44 272 544v.276c0 29.009 5.161 56.814 14.614 82.544l-.534-1.66L607.12 272ZM688 64c0-26.51-21.49-48-48-48H384c-26.51 0-48 21.49-48 48s21.49 48 48 48h256c26.51 0 48-21.49 48-48M355.56 790.6c-2.403 5.524-3.801 11.959-3.801 18.72 0 19.749 11.927 36.712 28.97 44.08l.311.12c38.646 16.799 83.661 26.572 130.96 26.572 185.568 0 336-150.432 336-336v-.097V544c0-74.72 9.52-139.72 28.28-193.12 1.738-4.764 2.744-10.265 2.744-16 0-26.523-21.501-48.024-48.024-48.024-20.788 0-38.49 13.208-45.174 31.689l-.106.334c-22.4 63.84-33.72 139.52-33.72 225.12v.091c0 132.548-107.452 240-240 240-33.776 0-65.922-6.977-95.076-19.569l1.556.598c-5.524-2.403-11.959-3.801-18.72-3.801-19.749 0-36.712 11.927-44.08 28.97Z" data-tags="bell-simple-slash-bold" glyph-name="bell-simple-slash-bold" unicode=""/><glyph d="m867.52 128.28-640 704c-8.834 9.925-21.644 16.146-35.907 16.146-26.51 0-48-21.49-48-48 0-12.651 4.894-24.159 12.893-32.734l-.026.028 59.2-65.16c-24.986-45.707-39.681-100.127-39.681-157.979l.001-.613V544c0-102.32-18.36-188-53.08-247.72-6.82-11.557-10.85-25.465-10.85-40.313 0-14.708 3.953-28.493 10.855-40.35l-.206.383c13.846-24.062 39.413-40.002 68.703-40.002l.608.002h144.729c8.632-89.915 83.791-159.662 175.24-159.662s166.608 69.747 175.184 158.947l.056.714h7.16l102.08-112.28c8.788-9.421 21.275-15.294 35.133-15.294 26.51 0 48 21.49 48 48 0 12.247-4.586 23.422-12.135 31.902l.042-.048ZM272 544v.276c0 29.009 5.161 56.814 14.614 82.544l-.534-1.66L607.12 272h-388.4C254.08 344 272 435.44 272 544m240-432h-.016c-38.519 0-70.68 27.223-78.292 63.479l-.092.521h156.8c-7.704-36.777-39.865-64-78.384-64ZM355.56 790.6c-2.403 5.524-3.801 11.959-3.801 18.72 0 19.749 11.927 36.712 28.97 44.08l.311.12c38.646 16.799 83.661 26.572 130.96 26.572 185.568 0 336-150.432 336-336v-.097V544c0-74.72 9.52-139.72 28.28-193.12 1.738-4.764 2.744-10.265 2.744-16 0-26.523-21.501-48.024-48.024-48.024-20.788 0-38.49 13.208-45.174 31.689l-.106.334c-22.4 63.84-33.72 139.52-33.72 225.12v.091c0 132.548-107.452 240-240 240-33.776 0-65.922-6.977-95.076-19.569l1.556.598c-5.524-2.403-11.959-3.801-18.72-3.801-19.749 0-36.712 11.927-44.08 28.97Z" data-tags="bell-slash-bold" glyph-name="bell-slash-bold" unicode=""/><glyph d="M816 528h-.104c-21.555 0-42.341-3.29-61.884-9.395l1.469.395-79.92 137h92.44c8.837 0 16-7.163 16-16 0-26.51 21.49-48 48-48s48 21.49 48 48c0 61.856-50.144 112-112 112h-176c-26.471-.051-47.911-21.522-47.911-48a47.8 47.8 0 0 1 6.553-24.227l-.123.227 32.56-56H438.24l-60.76 104c-8.439 14.424-23.841 23.966-41.475 24H208c-26.51 0-48-21.49-48-48s21.49-48 48-48h100.44l44.28-76L296 508.44c-25.968 12.475-56.455 19.764-88.646 19.764-115.251 0-208.68-93.429-208.68-208.68s93.429-208.68 208.68-208.68 208.68 93.429 208.68 208.68c0 49.001-16.889 94.057-45.164 129.666l.329-.429 33.48 42.28 67.32-115.24c8.058-15.853 24.247-26.526 42.928-26.526 26.51 0 48 21.49 48 48a47.78 47.78 0 0 1-8.236 26.894l.108-.169-60.56 104h144.84l33.56-57.52c-39.715-37.948-64.404-91.331-64.404-150.48 0-114.875 93.125-208 208-208s208 93.125 208 208-93.125 208-208 208h-.249.013ZM320 320v-.017c0-61.856-50.144-112-112-112s-112 50.144-112 112 50.144 112 112 112a112.3 112.3 0 0 0 25.921-3.015l-.761.152-62.8-79.32c-6.462-8.105-10.368-18.496-10.368-29.8 0-26.514 21.494-48.008 48.008-48.008 15.211 0 28.769 7.074 37.565 18.111l.075.097 62.8 79.32c7.29-14.407 11.56-31.408 11.56-49.407v-.12.006Zm496-112c-61.833.03-111.948 50.162-111.948 112 0 23.593 7.295 45.482 19.753 63.535l-.245-.375 50.96-87.36c8.629-13.606 23.61-22.506 40.67-22.506 26.51 0 48 21.49 48 48a47.8 47.8 0 0 1-5.835 22.957l.125-.251-51 87.36c3.16.28 6.32.44 9.52.44 61.856 0 112-50.144 112-112s-50.144-112-112-112Z" data-tags="bicycle-bold" glyph-name="bicycle-bold" unicode=""/><glyph d="M796.8 294.4 592 448l204.8 153.6c11.711 8.85 19.2 22.75 19.2 38.4s-7.489 29.55-19.079 38.313l-.121.087-256 192c-7.922 5.993-17.94 9.6-28.8 9.6-26.51 0-48-21.49-48-48V544L284.8 678.4c-7.922 5.993-17.94 9.6-28.8 9.6-26.51 0-48-21.49-48-48 0-15.65 7.489-29.55 19.079-38.313l.121-.087L432 448 227.2 294.4c-11.711-8.85-19.2-22.75-19.2-38.4 0-26.51 21.49-48 48-48a47.8 47.8 0 0 1 28.921 9.687l-.121-.087L464 352V64c0-26.51 21.49-48 48-48a47.8 47.8 0 0 1 28.921 9.687l-.121-.087 256 192c11.711 8.85 19.2 22.75 19.2 38.4s-7.489 29.55-19.079 38.313ZM560 736l128-96-128-96Zm0-576v192l128-96Z" data-tags="bluetooth-bold" glyph-name="bluetooth-bold" unicode=""/><glyph d="M796.8 294.4 592 448l204.8 153.6c11.711 8.85 19.2 22.75 19.2 38.4s-7.489 29.55-19.079 38.313l-.121.087-256 192c-7.922 5.993-17.94 9.6-28.8 9.6-26.51 0-48-21.49-48-48V544L284.8 678.4c-7.922 5.993-17.94 9.6-28.8 9.6-26.51 0-48-21.49-48-48 0-15.65 7.489-29.55 19.079-38.313l.121-.087L432 448 227.2 294.4c-11.711-8.85-19.2-22.75-19.2-38.4 0-26.51 21.49-48 48-48a47.8 47.8 0 0 1 28.921 9.687l-.121-.087L464 352V64c0-26.51 21.49-48 48-48a47.8 47.8 0 0 1 28.921 9.687l-.121-.087 256 192c11.711 8.85 19.2 22.75 19.2 38.4s-7.489 29.55-19.079 38.313ZM560 736l128-96-128-96Zm0-576v192l128-96ZM224 384c-35.346 0-64 28.654-64 64s28.654 64 64 64 64-28.654 64-64-28.654-64-64-64m672 64c0-35.346-28.654-64-64-64s-64 28.654-64 64 28.654 64 64 64 64-28.654 64-64" data-tags="bluetooth-connected-bold" glyph-name="bluetooth-connected-bold" unicode=""/><glyph d="m899.52 128.28-640 704c-8.788 9.421-21.275 15.294-35.133 15.294-26.51 0-48-21.49-48-48 0-12.247 4.586-23.422 12.135-31.902l-.042.048L460 469 227.2 294.4c-11.711-8.85-19.2-22.75-19.2-38.4 0-26.51 21.49-48 48-48a47.8 47.8 0 0 1 28.921 9.687l-.121-.087L464 352V64c0-26.51 21.49-48 48-48a47.8 47.8 0 0 1 28.921 9.687l-.121-.087 191.64 143.76 96-105.64c8.788-9.421 21.275-15.294 35.133-15.294 26.51 0 48 21.49 48 48 0 12.247-4.586 23.422-12.135 31.902l.042-.048ZM560 160v192l20-15.08 87.48-96.24Zm-96 561.04V832c0 26.51 21.49 48 48 48a47.8 47.8 0 0 0 28.921-9.687l-.121.087 256-192c11.711-8.85 19.2-22.75 19.2-38.4s-7.489-29.55-19.079-38.313l-.121-.087-108.4-81.32c-7.922-5.993-17.94-9.6-28.8-9.6-26.51 0-48 21.49-48 48 0 15.65 7.489 29.55 19.079 38.313l.121.087L688 640l-128 96v-14.96c0-26.51-21.49-48-48-48s-48 21.49-48 48" data-tags="bluetooth-slash-bold" glyph-name="bluetooth-slash-bold" unicode=""/><glyph d="M732.8 294.4 528 448l46.44 34.84c11.711 8.85 19.2 22.75 19.2 38.4 0 26.51-21.49 48-48 48a47.8 47.8 0 0 1-28.921-9.687l.121.087L496 544v192l20.84-15.64c7.922-5.993 17.94-9.6 28.8-9.6 26.51 0 48 21.49 48 48 0 15.65-7.489 29.55-19.079 38.313l-.121.087-97.64 73.24c-7.922 5.993-17.94 9.6-28.8 9.6-26.51 0-48-21.49-48-48V544L220.8 678.4c-7.922 5.993-17.94 9.6-28.8 9.6-26.51 0-48-21.49-48-48 0-15.65 7.489-29.55 19.079-38.313l.121-.087L368 448 163.2 294.4c-11.711-8.85-19.2-22.75-19.2-38.4 0-26.51 21.49-48 48-48a47.8 47.8 0 0 1 28.921 9.687l-.121-.087L400 352V64c0-26.51 21.49-48 48-48a47.8 47.8 0 0 1 28.921 9.687l-.121-.087 256 192c11.711 8.85 19.2 22.75 19.2 38.4s-7.489 29.55-19.079 38.313ZM496 160v192l128-96Zm465.96 417.96c8.701-8.701 14.083-20.722 14.083-34 0-26.556-21.528-48.083-48.083-48.083-13.278 0-25.299 5.382-34 14.083L832 572l-62.04-62.08c-8.701-8.701-20.722-14.083-34-14.083-26.556 0-48.083 21.528-48.083 48.083 0 13.278 5.382 25.299 14.083 34L764 640l-61.92 62.04c-8.701 8.701-14.083 20.722-14.083 34 0 26.556 21.528 48.083 48.083 48.083 13.278 0 25.299-5.382 34-14.083L832 708l62.04 62.08c8.701 8.701 20.722 14.083 34 14.083 26.556 0 48.083-21.528 48.083-48.083 0-13.278-5.382-25.299-14.083-34L900 640Z" data-tags="bluetooth-x-bold" glyph-name="bluetooth-x-bold" unicode=""/><glyph d="M832 880H288c-79.529 0-144-64.471-144-144V64c0-26.51 21.49-48 48-48h576c26.51 0 48 21.49 48 48s-21.49 48-48 48H240v16c0 26.51 21.49 48 48 48h544c26.51 0 48 21.49 48 48v608c0 26.51-21.49 48-48 48m-48-608H287.731c-17.114 0-33.522-3.02-48.721-8.555l.99.315V736c0 26.51 21.49 48 48 48h496Z" data-tags="book-bold" glyph-name="book-bold" unicode=""/><glyph d="M832 880H288c-79.529 0-144-64.471-144-144V64c0-26.51 21.49-48 48-48h576c26.51 0 48 21.49 48 48s-21.49 48-48 48H240v16c0 26.51 21.49 48 48 48h544c26.51 0 48 21.49 48 48v608c0 26.51-21.49 48-48 48m-352-96h144V548l-42.04 33.64c-8.139 6.56-18.606 10.53-30 10.53s-21.861-3.97-30.092-10.602l.092.072L480 548Zm304-512H287.731c-17.114 0-33.522-3.02-48.721-8.555l.99.315V736c0 26.51 21.49 48 48 48h96V447.99c0-26.51 21.49-48 48-48a47.8 47.8 0 0 1 30.092 10.602l-.092-.072 89.96 72 90.04-72c8.139-6.56 18.606-10.53 30-10.53 26.51 0 48 21.49 48 48v.011V448v336h64Z" data-tags="book-bookmark-bold" glyph-name="book-bookmark-bold" unicode=""/><glyph d="M928 784H639.944c-50.412 0-95.857-21.262-127.858-55.308l-.085-.092c-32.086 34.138-77.532 55.4-127.944 55.4H96.001c-26.51 0-48-21.49-48-48V160c0-26.51 21.49-48 48-48h288c44.183 0 80-35.817 80-80 0-26.51 21.49-48 48-48s48 21.49 48 48c0 44.183 35.817 80 80 80h288c26.51 0 48 21.49 48 48v576c0 26.51-21.49 48-48 48ZM384 208H144v480h240c44.183 0 80-35.817 80-80V188.76C440.799 200.886 413.324 208 384.188 208h-.198Zm496 0H639.891c-29.172 0-56.675-7.144-80.856-19.779l.965.459V608c0 44.183 35.817 80 80 80h240Z" data-tags="book-open-bold" glyph-name="book-open-bold" unicode=""/><glyph d="M736 848H288c-44.183 0-80-35.817-80-80V63.984c0-26.51 21.49-48 48-48 9.427 0 18.22 2.718 25.637 7.412l-.197-.116 230.52 144 230.6-144c7.22-4.578 16.013-7.296 25.44-7.296 26.51 0 48 21.49 48 48v.017V64v704c0 44.183-35.817 80-80 80m-16-96V342.6L537.4 456.72c-7.22 4.578-16.013 7.296-25.44 7.296s-18.22-2.718-25.637-7.412l.197.116L304 342.6V752ZM537.4 264.72c-7.22 4.578-16.013 7.296-25.44 7.296s-18.22-2.718-25.637-7.412l.197.116L304 150.6v78.8l208 130 208-130v-78.8Z" data-tags="bookmark-bold" glyph-name="bookmark-bold" unicode=""/><glyph d="M736 848H288c-44.183 0-80-35.817-80-80V63.984c0-26.51 21.49-48 48-48 9.427 0 18.22 2.718 25.637 7.412l-.197-.116 230.52 144 230.6-144c7.22-4.578 16.013-7.296 25.44-7.296 26.51 0 48 21.49 48 48v.017V64v704c0 44.183-35.817 80-80 80m-16-697.4L537.4 264.72c-7.22 4.578-16.013 7.296-25.44 7.296s-18.22-2.718-25.637-7.412l.197.116L304 150.6V752h416Z" data-tags="bookmark-simple-bold" glyph-name="bookmark-simple-bold" unicode=""/><glyph d="M768 880H384c-44.183 0-80-35.817-80-80v-80h-48c-44.183 0-80-35.817-80-80V63.995c0-26.51 21.49-48 48-48a47.8 47.8 0 0 1 29.389 10.046l-.109-.082L432 163.439l178.76-137.48c8.004-6.197 18.186-9.934 29.24-9.934 26.501 0 47.985 21.475 48 47.973v185.601l82.72-63.64c8.011-6.216 18.208-9.965 29.28-9.965 26.51 0 48 21.49 48 48v576.005c0 44.183-35.817 80-80 80ZM592 161.48 461.24 262.04c-8.008 6.207-18.197 9.949-29.26 9.949s-21.252-3.743-29.37-10.031l.11.082L272 161.48V624h320Zm160 160-64 49.2V640c0 44.183-35.817 80-80 80H400v64h352Z" data-tags="bookmarks-bold" glyph-name="bookmarks-bold" unicode=""/><glyph d="M400 560c0 26.51 21.49 48 48 48h128c26.51 0 48-21.49 48-48s-21.49-48-48-48H448c-26.51 0-48 21.49-48 48m544 128V176c0-44.183-35.817-80-80-80H160c-44.183 0-80 35.817-80 80v512c0 44.183 35.817 80 80 80h144v32c0 61.856 50.144 112 112 112h192c61.856 0 112-50.144 112-112v-32h144c44.183 0 80-35.817 80-80m-544 80h224v32c0 8.837-7.163 16-16 16H416c-8.837 0-16-7.163-16-16Zm-224-96V531.08C273.334 478.748 388.985 448 511.817 448h.194-.01.167c122.842 0 238.498 30.764 339.686 85.007l-3.853-1.887V672Zm672-480v232.24C749.301 378.612 633.805 352 512.094 352h-.099.006-.145c-121.694 0-237.172 26.612-340.933 74.334l5.078-2.094V192Z" data-tags="briefcase-bold" glyph-name="briefcase-bold" unicode=""/><glyph d="M512 624c-97.202 0-176-78.798-176-176s78.798-176 176-176 176 78.798 176 176c-.114 97.156-78.844 175.886-175.989 176Zm0-256c-44.183 0-80 35.817-80 80s35.817 80 80 80 80-35.817 80-80-35.817-80-80-80m309.56-50.8c-15.367-35.827-35.242-66.628-59.394-93.51l.274.31c-8.828-9.84-21.584-16.002-35.78-16.002-26.511 0-48.002 21.491-48.002 48.002 0 12.315 4.638 23.547 12.262 32.045l-.04-.045c37.989 42.236 61.224 98.405 61.224 160s-23.235 117.763-61.417 160.219l.193-.219c-7.585 8.453-12.222 19.685-12.222 32 0 26.511 21.491 48.002 48.002 48.002 14.196 0 26.952-6.162 35.74-15.957l.04-.045c53.094-59.206 85.557-137.864 85.557-224.103 0-47.196-9.723-92.121-27.274-132.881ZM333.12 288c7.585-8.453 12.222-19.685 12.222-32 0-26.511-21.491-48.002-48.002-48.002-14.196 0-26.952 6.162-35.74 15.957l-.04.045c-53.143 59.148-85.642 137.779-85.642 224s32.499 164.851 85.916 224.309l-.273-.309c8.828 9.84 21.584 16.002 35.78 16.002 26.511 0 48.002-21.491 48.002-48.002 0-12.315-4.638-23.547-12.262-32.045l.04.045c-37.989-42.236-61.224-98.405-61.224-160s23.235-117.763 61.417-160.219ZM1008 448v-.591c0-134.999-54.094-257.363-141.79-346.6l.069.071c-8.806-9.599-21.408-15.594-35.41-15.594-26.51 0-48 21.49-48 48 0 13.644 5.692 25.958 14.832 34.697l.018.017c70.817 72.041 114.535 170.915 114.535 280s-43.719 207.959-114.591 280.056l.055-.056c-8.484 8.651-13.721 20.514-13.721 33.6 0 26.51 21.491 48.001 48.001 48.001 13.424 0 25.561-5.511 34.272-14.393l.008-.008c87.626-89.166 141.72-211.53 141.72-346.529v-.707V448ZM226.28 168c8.484-8.651 13.721-20.514 13.721-33.6 0-26.51-21.491-48.001-48.001-48.001-13.424 0-25.561 5.511-34.272 14.393l-.008.008C69.991 190.139 15.837 312.705 15.837 447.92s54.154 257.782 141.956 347.195l-.073-.075a47.8 47.8 0 0 0 32.672 12.835c26.51 0 48-21.49 48-48 0-12.257-4.594-23.44-12.154-31.923l.042.048c-70.817-72.041-114.535-170.915-114.535-280s43.719-207.959 114.591-280.056Z" data-tags="broadcast-bold" glyph-name="broadcast-bold" unicode=""/><glyph d="M864 816H160c-44.183 0-80-35.817-80-80V160c0-44.183 35.817-80 80-80h704c44.183 0 80 35.817 80 80v576c0 44.183-35.817 80-80 80m-16-96v-96H176v96ZM176 176v352h672V176Z" data-tags="browser-bold" glyph-name="browser-bold" unicode=""/><glyph d="M880 832H304c-44.183 0-80-35.817-80-80v-80h-80c-44.183 0-80-35.817-80-80V144c0-44.183 35.817-80 80-80h576c44.183 0 80 35.817 80 80v80h80c44.183 0 80 35.817 80 80v448c0 44.183-35.817 80-80 80M704 576v-64H160v64Zm0-416H160v256h544Zm160 160h-64v272c0 44.183-35.817 80-80 80H320v64h544Z" data-tags="browsers-bold" glyph-name="browsers-bold" unicode=""/><glyph d="M720 672H144c-44.183 0-80-35.817-80-80V144c0-44.183 35.817-80 80-80h576c44.183 0 80 35.817 80 80v448c0 44.183-35.817 80-80 80m-16-512H160v416h544Zm256 592V256c0-26.51-21.49-48-48-48s-48 21.49-48 48v480H256c-26.51 0-48 21.49-48 48s21.49 48 48 48h624c44.183 0 80-35.817 80-80" data-tags="cards-bold" glyph-name="cards-bold" unicode=""/><glyph d="M960 144h-16v512c0 26.51-21.49 48-48 48H752v96c0 26.51-21.49 48-48 48H320c-26.51 0-48-21.49-48-48V560H128c-26.51 0-48-21.49-48-48V144H64c-26.51 0-48-21.49-48-48s21.49-48 48-48h896c26.51 0 48 21.49 48 48s-21.49 48-48 48M176 464h144c26.51 0 48 21.49 48 48v240h288v-96c0-26.51 21.49-48 48-48h144V144H592v112c0 8.837-7.163 16-16 16H448c-8.837 0-16-7.163-16-16V144H176Zm256 192c0 26.51 21.49 48 48 48h64c26.51 0 48-21.49 48-48s-21.49-48-48-48h-64c-26.51 0-48 21.49-48 48m0-144c0 26.51 21.49 48 48 48h64c26.51 0 48-21.49 48-48s-21.49-48-48-48h-64c-26.51 0-48 21.49-48 48m208 0c0 26.51 21.49 48 48 48h64c26.51 0 48-21.49 48-48s-21.49-48-48-48h-64c-26.51 0-48 21.49-48 48M384 368c0-26.51-21.49-48-48-48h-64c-26.51 0-48 21.49-48 48s21.49 48 48 48h64c26.51 0 48-21.49 48-48m48 0c0 26.51 21.49 48 48 48h64c26.51 0 48-21.49 48-48s-21.49-48-48-48h-64c-26.51 0-48 21.49-48 48m208 0c0 26.51 21.49 48 48 48h64c26.51 0 48-21.49 48-48s-21.49-48-48-48h-64c-26.51 0-48 21.49-48 48" data-tags="building-apartment-bold" glyph-name="building-apartment-bold" unicode=""/><glyph d="M976 144h-48v418.8c18.722 6.832 31.846 24.483 31.846 45.2 0 26.456-21.403 47.912-47.838 48H752v98.8c18.722 6.832 31.846 24.483 31.846 45.2 0 26.456-21.403 47.912-47.838 48H160c-26.444-.087-47.846-21.544-47.846-48 0-20.717 13.125-38.369 31.513-45.094l.333-.107v-610.8H96c-26.51 0-48-21.49-48-48s21.49-48 48-48h880c26.51 0 48 21.49 48 48s-21.49 48-48 48ZM832 560V144h-80v416ZM240 752h416V144h-64v176c0 26.51-21.49 48-48 48H352c-26.51 0-48-21.49-48-48V144h-64Zm256-608h-96v128h96ZM288 640c0 26.51 21.49 48 48 48h32c26.51 0 48-21.49 48-48s-21.49-48-48-48h-32c-26.51 0-48 21.49-48 48m192 0c0 26.51 21.49 48 48 48h32c26.51 0 48-21.49 48-48s-21.49-48-48-48h-32c-26.51 0-48 21.49-48 48M288 480c0 26.51 21.49 48 48 48h32c26.51 0 48-21.49 48-48s-21.49-48-48-48h-32c-26.51 0-48 21.49-48 48m192 0c0 26.51 21.49 48 48 48h32c26.51 0 48-21.49 48-48s-21.49-48-48-48h-32c-26.51 0-48 21.49-48 48" data-tags="building-office-bold" glyph-name="building-office-bold" unicode=""/><glyph d="M928 80h-80v736h16c26.51 0 48 21.49 48 48s-21.49 48-48 48H160c-26.51 0-48-21.49-48-48s21.49-48 48-48h16V80H96c-26.51 0-48-21.49-48-48s21.49-48 48-48h832c26.51 0 48 21.49 48 48s-21.49 48-48 48M272 816h480V80h-96v144c0 26.51-21.49 48-48 48H416c-26.51 0-48-21.49-48-48V80h-96ZM560 80h-96v96h96ZM336 704c0 26.51 21.49 48 48 48h48c26.51 0 48-21.49 48-48s-21.49-48-48-48h-48c-26.51 0-48 21.49-48 48m208 0c0 26.51 21.49 48 48 48h48c26.51 0 48-21.49 48-48s-21.49-48-48-48h-48c-26.51 0-48 21.49-48 48M336 544c0 26.51 21.49 48 48 48h48c26.51 0 48-21.49 48-48s-21.49-48-48-48h-48c-26.51 0-48 21.49-48 48m208 0c0 26.51 21.49 48 48 48h48c26.51 0 48-21.49 48-48s-21.49-48-48-48h-48c-26.51 0-48 21.49-48 48M336 384c0 26.51 21.49 48 48 48h48c26.51 0 48-21.49 48-48s-21.49-48-48-48h-48c-26.51 0-48 21.49-48 48m208 0c0 26.51 21.49 48 48 48h48c26.51 0 48-21.49 48-48s-21.49-48-48-48h-48c-26.51 0-48 21.49-48 48" data-tags="building-bold" glyph-name="building-bold" unicode=""/><glyph d="M960 144h-48v432c0 44.183-35.817 80-80 80H688v176c-.017 44.17-35.827 79.971-80 79.971-12.269 0-23.894-2.762-34.285-7.698l.485.207-416-194.16c-27.478-13.094-46.142-40.62-46.2-72.512V144H64c-26.51 0-48-21.49-48-48s21.49-48 48-48h896c26.51 0 48 21.49 48 48s-21.49 48-48 48M816 560V144H688v416Zm-608 67.64L592 806.8V144H208ZM528 512v-48c0-26.51-21.49-48-48-48s-48 21.49-48 48v48c0 26.51 21.49 48 48 48s48-21.49 48-48m-160 0v-48c0-26.51-21.49-48-48-48s-48 21.49-48 48v48c0 26.51 21.49 48 48 48s48-21.49 48-48m0-208v-48c0-26.51-21.49-48-48-48s-48 21.49-48 48v48c0 26.51 21.49 48 48 48s48-21.49 48-48m160 0v-48c0-26.51-21.49-48-48-48s-48 21.49-48 48v48c0 26.51 21.49 48 48 48s48-21.49 48-48" data-tags="buildings-bold" glyph-name="buildings-bold" unicode=""/><glyph d="M736 848H288c-79.529 0-144-64.471-144-144V128c0-44.183 35.817-80 80-80h112c44.183 0 80 35.817 80 80v64h192v-64c0-44.183 35.817-80 80-80h112c44.183 0 80 35.817 80 80v576c0 79.529-64.471 144-144 144M240 288v224h544V288Zm48 464h448c26.51 0 48-21.49 48-48v-96H240v96c0 26.51 21.49 48 48 48m32-608h-80v48h80Zm384 0v48h80v-48ZM432 400c0-35.346-28.654-64-64-64s-64 28.654-64 64 28.654 64 64 64 64-28.654 64-64m288 0c0-35.346-28.654-64-64-64s-64 28.654-64 64 28.654 64 64 64 64-28.654 64-64m304 240v-96c0-26.51-21.49-48-48-48s-48 21.49-48 48v96c0 26.51 21.49 48 48 48s48-21.49 48-48m-928 0v-96c0-26.51-21.49-48-48-48S0 517.49 0 544v96c0 26.51 21.49 48 48 48s48-21.49 48-48" data-tags="bus-bold" glyph-name="bus-bold" unicode=""/><glyph d="M832 848h-80v16c0 26.51-21.49 48-48 48s-48-21.49-48-48v-16H368v16c0 26.51-21.49 48-48 48s-48-21.49-48-48v-16h-80c-44.183 0-80-35.817-80-80V128c0-44.183 35.817-80 80-80h640c44.183 0 80 35.817 80 80v640c0 44.183-35.817 80-80 80m-560-96c0-26.51 21.49-48 48-48s48 21.49 48 48h288c0-26.51 21.49-48 48-48s48 21.49 48 48h64v-96H208v96Zm-64-608v416h608V144Zm240 320V240c0-26.51-21.49-48-48-48s-48 21.49-48 48v146.72c-4.469-1.517-9.616-2.393-14.968-2.393-26.51 0-48 21.49-48 48 0 18.271 10.208 34.158 25.233 42.268l.255.126 64 32c6.258 3.2 13.65 5.075 21.48 5.075 26.437 0 47.883-21.373 48-47.783v-.011Zm245.96-135.52L655.6 288H672c26.51 0 48-21.49 48-48s-21.49-48-48-48H544c-26.502.01-47.983 21.496-47.983 48 0 12.793 5.005 24.417 13.163 33.021l-.02-.021L621.8 392c1.366 2.291 2.181 5.048 2.2 7.995v.046c0 8.837-7.163 16-16 16-5.908 0-11.068-3.202-13.839-7.965l-.041-.076c-8.548-14.022-23.759-23.242-41.122-23.242-26.51 0-48 21.49-48 48 0 8.53 2.225 16.541 6.127 23.483L511 456c19.724 33.719 55.759 56.009 97 56.009 61.856 0 112-50.144 112-112V400l.001-.335c0-25.333-8.48-48.686-22.757-67.373l.197.269a43 43 0 0 0-3.491-4.091l.011.011Z" data-tags="calendar-bold" glyph-name="calendar-bold" unicode=""/><glyph d="M832 848h-80v16c0 26.51-21.49 48-48 48s-48-21.49-48-48v-16H368v16c0 26.51-21.49 48-48 48s-48-21.49-48-48v-16h-80c-44.183 0-80-35.817-80-80V128c0-44.183 35.817-80 80-80h640c44.183 0 80 35.817 80 80v640c0 44.183-35.817 80-80 80m-560-96c0-26.51 21.49-48 48-48s48 21.49 48 48h288c0-26.51 21.49-48 48-48s48 21.49 48 48h64v-96H208v96Zm-64-608v416h608V144Z" data-tags="calendar-blank-bold" glyph-name="calendar-blank-bold" unicode=""/><glyph d="M641.96 414.04 580 352l62.08-62.04c8.701-8.701 14.083-20.722 14.083-34 0-26.556-21.528-48.083-48.083-48.083-13.278 0-25.299 5.382-34 14.083L512 284l-62.04-62.08c-8.701-8.701-20.722-14.083-34-14.083-26.556 0-48.083 21.528-48.083 48.083 0 13.278 5.382 25.299 14.083 34L444 352l-61.96 62.04c-8.701 8.701-14.083 20.722-14.083 34 0 26.556 21.528 48.083 48.083 48.083 13.278 0 25.299-5.382 34-14.083L512 420l62.04 62.08c8.701 8.701 20.722 14.083 34 14.083 26.556 0 48.083-21.528 48.083-48.083 0-13.278-5.382-25.299-14.083-34ZM912 768V128c0-44.183-35.817-80-80-80H192c-44.183 0-80 35.817-80 80v640c0 44.183 35.817 80 80 80h80v16c0 26.51 21.49 48 48 48s48-21.49 48-48v-16h288v16c0 26.51 21.49 48 48 48s48-21.49 48-48v-16h80c44.183 0 80-35.817 80-80m-704-16v-96h608v96h-64c0-26.51-21.49-48-48-48s-48 21.49-48 48H368c0-26.51-21.49-48-48-48s-48 21.49-48 48Zm608-608v416H208V144Z" data-tags="calendar-x-bold" glyph-name="calendar-x-bold" unicode=""/><glyph d="M832 752H729.68L680 826.64c-8.732 12.954-23.349 21.36-39.929 21.36H383.929c-16.58 0-31.197-8.406-39.82-21.19l-.108-.17-49.72-74.64h-102.28c-61.856 0-112-50.144-112-112V192c0-61.856 50.144-112 112-112h640c61.856 0 112 50.144 112 112v448c0 61.856-50.144 112-112 112Zm16-560c0-8.837-7.163-16-16-16H192c-8.837 0-16 7.163-16 16v448c0 8.837 7.163 16 16 16h128.071c16.58 0 31.197 8.406 39.82 21.19l.108.17 49.68 74.64h204.6l49.72-74.64c8.732-12.954 23.349-21.36 39.929-21.36h128.071c8.837 0 16-7.163 16-16ZM512 624c-106.039 0-192-85.961-192-192s85.961-192 192-192 192 85.961 192 192c-.114 105.993-86.007 191.886-191.989 192Zm0-288c-53.019 0-96 42.981-96 96s42.981 96 96 96 96-42.981 96-96-42.981-96-96-96" data-tags="camera-bold" glyph-name="camera-bold" unicode=""/><glyph d="M227.52 832.28c-8.834 9.925-21.644 16.146-35.907 16.146-26.51 0-48-21.49-48-48 0-12.651 4.894-24.159 12.893-32.734l-.026.028 16-17.48c-52.881-9.613-92.457-55.302-92.48-110.238V192c0-61.856 50.144-112 112-112h589.68l14.8-16.28c8.788-9.421 21.275-15.294 35.133-15.294 26.51 0 48 21.49 48 48 0 12.247-4.586 23.422-12.135 31.902l.042-.048Zm197.4-360L544 341.44c-9.541-3.488-20.557-5.506-32.044-5.506-53.019 0-96 42.981-96 96 0 14.702 3.305 28.632 9.213 41.088l-.249-.583ZM192 176c-8.837 0-16 7.163-16 16v448c0 8.837 7.163 16 16 16h66.04l99.68-109.64c-23.503-31.491-37.629-71.178-37.629-114.165 0-106.039 85.961-192 192-192 36.566 0 70.745 10.222 99.835 27.964l-.845-.479 83.32-91.68Zm752 464V263.44c0-26.51-21.49-48-48-48s-48 21.49-48 48V640c0 8.837-7.163 16-16 16H703.929c-16.58 0-31.197 8.406-39.82 21.19l-.108.17-49.72 74.64h-206.04c-26.51 0-48 21.49-48 48s21.49 48 48 48h231.831c16.58 0 31.197-8.406 39.82-21.19l.108-.17L729.68 752H832c61.856 0 112-50.144 112-112" data-tags="camera-slash-bold" glyph-name="camera-slash-bold" unicode=""/><glyph d="M960 560h-32.8L820.32 800.48C807.552 828.711 779.634 848 747.21 848H276.79c-32.423 0-60.342-19.289-72.906-47.017l-.204-.503L96.8 560H64c-26.51 0-48-21.49-48-48s21.49-48 48-48h16V160c0-44.183 35.817-80 80-80h112c44.183 0 80 35.817 80 80v80h320v-80c0-44.183 35.817-80 80-80h112c44.183 0 80 35.817 80 80v304h16c26.51 0 48 21.49 48 48s-21.49 48-48 48M287.2 752h449.6l85.32-192H201.88ZM256 176h-80v64h80Zm512 0v64h80v-64Zm80 160H176v128h672Z" data-tags="car-bold" glyph-name="car-bold" unicode=""/><glyph d="M960 560h-32.8L820.32 800.48C807.552 828.711 779.634 848 747.21 848H276.79c-32.423 0-60.342-19.289-72.906-47.017l-.204-.503L96.8 560H64c-26.51 0-48-21.49-48-48s21.49-48 48-48h16V160c0-44.183 35.817-80 80-80h112c44.183 0 80 35.817 80 80v48h320v-48c0-44.183 35.817-80 80-80h112c44.183 0 80 35.817 80 80v304h16c26.51 0 48 21.49 48 48s-21.49 48-48 48M287.2 752h449.6l85.32-192H201.88ZM848 176h-80v80c0 26.51-21.49 48-48 48H304c-26.51 0-48-21.49-48-48v-80h-80v288h672Z" data-tags="car-simple-bold" glyph-name="car-simple-bold" unicode=""/><glyph d="M817.6 753.6C739.436 831.699 631.489 880 512.26 880c-238.587 0-432-193.413-432-432s193.413-432 432-432c119.229 0 227.177 48.301 305.343 126.403l-.003-.003c78.1 78.26 126.395 186.29 126.395 305.6S895.7 675.34 817.593 753.607Zm-68-543.28C688.805 149.571 604.842 112 512.104 112c-185.568 0-336 150.432-336 336s150.432 336 336 336c92.738 0 176.701-37.571 237.498-98.322l-.002.002c60.767-60.87 98.346-144.907 98.346-237.72 0-92.774-37.546-176.778-98.272-237.647l.007.007ZM674 642.04c8.721-8.692 14.118-20.716 14.118-34s-5.396-25.308-14.116-33.999L546.001 446.04c-8.692-8.721-20.716-14.118-34-14.118s-25.308 5.396-33.999 14.116L350.001 574.039c-8.701 8.701-14.083 20.722-14.083 34 0 26.556 21.528 48.083 48.083 48.083 13.278 0 25.299-5.382 34-14.083l94-94.04 94.12 94.12c8.682 8.662 20.666 14.018 33.9 14.018 13.274 0 25.29-5.388 33.979-14.097l.001-.001Zm0-224c8.721-8.692 14.118-20.716 14.118-34s-5.396-25.308-14.116-33.999L546.001 222.04c-8.692-8.721-20.716-14.118-34-14.118s-25.308 5.396-33.999 14.116L350.001 350.039c-8.701 8.701-14.083 20.722-14.083 34 0 26.556 21.528 48.083 48.083 48.083 13.278 0 25.299-5.382 34-14.083l94-94.04 94.12 94.08c8.678 8.638 20.645 13.978 33.86 13.978 13.294 0 25.326-5.404 34.018-14.136l.002-.002Z" data-tags="caret-circle-double-down-bold" glyph-name="caret-circle-double-down-bold" unicode=""/><glyph d="M817.6 753.6C739.436 831.699 631.489 880 512.26 880c-238.587 0-432-193.413-432-432s193.413-432 432-432c119.229 0 227.177 48.301 305.343 126.403l-.003-.003c78.1 78.26 126.395 186.29 126.395 305.6S895.7 675.34 817.593 753.607Zm-68-543.28C688.805 149.571 604.842 112 512.104 112c-185.568 0-336 150.432-336 336s150.432 336 336 336c92.738 0 176.701-37.571 237.498-98.322l-.002.002c60.767-60.87 98.346-144.907 98.346-237.72 0-92.774-37.546-176.778-98.272-237.647l.007.007Zm-43.64 331.8L612 448l94.12-94.12c8.701-8.701 14.083-20.722 14.083-34 0-26.556-21.528-48.083-48.083-48.083-13.278 0-25.299 5.382-34 14.083l-128 128c-8.721 8.692-14.118 20.716-14.118 34s5.396 25.308 14.116 33.999L638.119 609.88c8.701 8.701 20.722 14.083 34 14.083 26.556 0 48.083-21.528 48.083-48.083 0-13.278-5.382-25.299-14.083-34Zm-224 0L388 448l94.08-94.12c8.701-8.701 14.083-20.722 14.083-34 0-26.556-21.528-48.083-48.083-48.083-13.278 0-25.299 5.382-34 14.083l-128 128c-8.721 8.692-14.118 20.716-14.118 34s5.396 25.308 14.116 33.999L414.079 609.88c8.701 8.701 20.722 14.083 34 14.083 26.556 0 48.083-21.528 48.083-48.083 0-13.278-5.382-25.299-14.083-34Z" data-tags="caret-circle-double-left-bold" glyph-name="caret-circle-double-left-bold" unicode=""/><glyph d="M817.6 753.6C739.436 831.699 631.489 880 512.26 880c-238.587 0-432-193.413-432-432s193.413-432 432-432c119.229 0 227.177 48.301 305.343 126.403l-.003-.003c78.1 78.26 126.395 186.29 126.395 305.6S895.7 675.34 817.593 753.607Zm-68-543.28C688.805 149.571 604.842 112 512.104 112c-185.568 0-336 150.432-336 336s150.432 336 336 336c92.738 0 176.701-37.571 237.498-98.322l-.002.002c60.767-60.87 98.346-144.907 98.346-237.72 0-92.774-37.546-176.778-98.272-237.647l.007.007ZM513.88 481.96c8.721-8.692 14.118-20.716 14.118-34s-5.396-25.308-14.116-33.999L385.881 285.96c-8.701-8.701-20.722-14.083-34-14.083-26.556 0-48.083 21.528-48.083 48.083 0 13.278 5.382 25.299 14.083 34l94.12 94.04-94.04 94.12c-8.701 8.701-14.083 20.722-14.083 34 0 26.556 21.528 48.083 48.083 48.083 13.278 0 25.299-5.382 34-14.083Zm224-68-128-128c-8.701-8.701-20.722-14.083-34-14.083-26.556 0-48.083 21.528-48.083 48.083 0 13.278 5.382 25.299 14.083 34L636 448l-94.08 94.12c-8.701 8.701-14.083 20.722-14.083 34 0 26.556 21.528 48.083 48.083 48.083 13.278 0 25.299-5.382 34-14.083l128-128c8.781-8.702 14.218-20.766 14.218-34.1 0-13.274-5.388-25.29-14.097-33.979l-.001-.001Z" data-tags="caret-circle-double-right-bold" glyph-name="caret-circle-double-right-bold" unicode=""/></font>
</defs>
</svg>
